<?xml version="1.0" encoding="utf-8"?>
<!-- Generator: Adobe Illustrator 22.1.0, SVG Export Plug-In . SVG Version: 6.00 Build 0)  -->
<svg version="1.1" id="Layer_1" xmlns="http://www.w3.org/2000/svg" xmlns:xlink="http://www.w3.org/1999/xlink" x="0px" y="0px"
	 viewBox="0 0 360 28" style="enable-background:new 0 0 360 28;" xml:space="preserve">
<style type="text/css">
	.st0{enable-background:new    ;}
	.st1{fill:#6C757D;}
</style>
<title>atplgy-logo</title>
<g id="Layer_2_1_">
	<g id="Layer_1-2">
		<g class="st0">
			<path class="st1" d="M1.1,26.5L12.9,1c0.1-0.2,0.3-0.4,0.6-0.4h0.4c0.4,0,0.5,0.2,0.6,0.4l11.7,25.5c0.2,0.5-0.1,1-0.6,1h-3.3
				c-0.6,0-0.8-0.2-1.1-0.8l-1.9-4.1H8l-1.9,4.1C6,27.1,5.6,27.4,5,27.4H1.7C1.2,27.4,0.9,27,1.1,26.5z M17.5,18.4l-3.8-8.3h-0.1
				l-3.7,8.3H17.5z"/>
			<path class="st1" d="M31.6,1.2c0-0.4,0.3-0.7,0.7-0.7h0.9L49,17.3l0,0V1.6c0-0.4,0.3-0.7,0.7-0.7h3.5c0.4,0,0.7,0.3,0.7,0.7v25.5
				c0,0.4-0.3,0.7-0.7,0.7h-0.9L36.5,10.4l0,0v16.3c0,0.4-0.3,0.7-0.7,0.7h-3.4c-0.4,0-0.7-0.3-0.7-0.7L31.6,1.2L31.6,1.2z"/>
			<path class="st1" d="M66.3,5.5h-5.8c-0.4,0-0.7-0.3-0.7-0.7V1.6c0-0.4,0.3-0.7,0.7-0.7h16.6c0.4,0,0.7,0.3,0.7,0.7v3.1
				c0,0.4-0.3,0.7-0.7,0.7h-5.8v21.3c0,0.4-0.3,0.7-0.7,0.7H67c-0.4,0-0.7-0.3-0.7-0.7V5.5z"/>
			<path class="st1" d="M83.6,1.6c0-0.4,0.3-0.7,0.7-0.7h3.5c0.4,0,0.7,0.3,0.7,0.7v10h12.4v-10c0-0.4,0.3-0.7,0.7-0.7h3.5
				c0.4,0,0.7,0.3,0.7,0.7v25.1c0,0.4-0.3,0.7-0.7,0.7h-3.5c-0.4,0-0.7-0.3-0.7-0.7V16.3H88.6v10.5c0,0.4-0.3,0.7-0.7,0.7h-3.5
				c-0.4,0-0.7-0.3-0.7-0.7V1.6H83.6z"/>
			<path class="st1" d="M114.7,1.6c0-0.4,0.3-0.7,0.7-0.7h10.8c4.5,0,8.3,3.6,8.3,8.1c0,3.5-2.3,6.3-5.6,7.7l5.2,9.6
				c0.3,0.5,0,1.1-0.6,1.1h-4c-0.3,0-0.5-0.2-0.6-0.3l-5-10h-4.2v9.7c0,0.4-0.3,0.7-0.7,0.7h-3.5c-0.4,0-0.7-0.3-0.7-0.7L114.7,1.6
				L114.7,1.6z M125.8,13c2,0,3.8-1.7,3.8-3.9c0-2-1.7-3.7-3.8-3.7h-6.2V13H125.8z"/>
			<path class="st1" d="M153.5,0.5c7.6,0,13.6,6.1,13.6,13.7s-6.1,13.6-13.6,13.6s-13.6-6-13.6-13.6S145.9,0.5,153.5,0.5z
				 M153.5,22.9c4.8,0,8.7-3.9,8.7-8.7s-3.9-8.8-8.7-8.8s-8.7,4-8.7,8.8S148.7,22.9,153.5,22.9z"/>
		</g>
		<g class="st0">
			<path class="st1" d="M174,1.6c0-0.4,0.3-0.7,0.7-0.7h8.9c4.7,0,8.5,3.8,8.5,8.4c0,4.7-3.8,8.5-8.5,8.5h-4.7v8.9
				c0,0.4-0.3,0.7-0.7,0.7h-3.5c-0.4,0-0.7-0.3-0.7-0.7V1.6z M183.3,13.2c2.1,0,3.9-1.7,3.9-3.9c0-2.1-1.8-3.7-3.9-3.7h-4.4v7.6
				C178.9,13.2,183.3,13.2,183.3,13.2z"/>
		</g>
		<g class="st0">
			<path class="st1" d="M193.4,26.5L205.2,1c0.1-0.2,0.3-0.4,0.6-0.4h0.4c0.4,0,0.5,0.2,0.6,0.4l11.7,25.5c0.2,0.5-0.1,1-0.6,1h-3.3
				c-0.6,0-0.8-0.2-1.1-0.8l-1.9-4.1h-11.3l-1.9,4.1c-0.2,0.4-0.5,0.8-1.1,0.8H194C193.5,27.4,193.2,27,193.4,26.5z M209.8,18.4
				l-3.8-8.3h-0.1l-3.7,8.3H209.8z"/>
		</g>
		<g class="st0">
			<path class="st1" d="M220.4,1.8c-0.2-0.5,0.2-0.9,0.7-0.9h3.5c0.3,0,0.6,0.3,0.7,0.5l3.9,15.1h0.2l6-15.6
				c0.1-0.2,0.3-0.4,0.6-0.4h0.7c0.4,0,0.6,0.2,0.6,0.4l6.1,15.6h0.2l3.9-15.1c0.1-0.3,0.4-0.5,0.7-0.5h3.5c0.5,0,0.8,0.4,0.7,0.9
				l-7.2,25.5c-0.1,0.3-0.4,0.5-0.7,0.5h-0.6c-0.3,0-0.6-0.2-0.6-0.4l-6.8-17.2h-0.2l-6.7,17.2c-0.1,0.2-0.3,0.4-0.6,0.4h-0.6
				c-0.3,0-0.6-0.2-0.7-0.5L220.4,1.8z"/>
		</g>
		<g class="st0">
			<path class="st1" d="M258.6,1.6c0-0.4,0.3-0.7,0.7-0.7h3.5c0.4,0,0.7,0.3,0.7,0.7v21.3h9.7c0.4,0,0.7,0.3,0.7,0.7v3.1
				c0,0.4-0.3,0.7-0.7,0.7h-13.9c-0.4,0-0.7-0.3-0.7-0.7L258.6,1.6L258.6,1.6z"/>
		</g>
		<g class="st0">
			<path class="st1" d="M291.1,0.5c7.6,0,13.6,6.1,13.6,13.7s-6.1,13.6-13.6,13.6c-7.6,0-13.6-6-13.6-13.6S283.5,0.5,291.1,0.5z
				 M291.1,22.9c4.8,0,8.7-3.9,8.7-8.7s-3.9-8.8-8.7-8.8c-4.8,0-8.7,4-8.7,8.8S286.3,22.9,291.1,22.9z"/>
			<path class="st1" d="M323.3,0.5c3.4,0,6.7,1.3,9.2,3.5c0.3,0.3,0.3,0.8,0,1.1l-2.3,2.5c-0.3,0.3-0.6,0.3-1,0
				c-1.6-1.4-3.6-2.2-5.7-2.2c-4.7,0-8.5,4.1-8.5,8.8s3.8,8.7,8.5,8.7c2.1,0,3.8-0.6,4.5-0.9v-3.2h-3c-0.4,0-0.7-0.3-0.7-0.7v-3
				c0-0.4,0.3-0.7,0.7-0.7h7.3c0.4,0,0.7,0.3,0.7,0.7v9.7c0,0.3-0.2,0.5-0.3,0.6c0,0-3.9,2.5-9.4,2.5c-7.5,0-13.6-6-13.6-13.6
				C309.7,6.6,315.8,0.5,323.3,0.5z"/>
			<path class="st1" d="M345.6,14.7L336.9,2c-0.3-0.5,0-1.1,0.6-1.1h3.9c0.3,0,0.5,0.2,0.6,0.3l6.1,8.7l6.1-8.7
				c0.1-0.2,0.3-0.3,0.6-0.3h3.9c0.6,0,0.9,0.6,0.6,1.1l-8.8,12.6v12.1c0,0.4-0.3,0.7-0.7,0.7h-3.5c-0.4,0-0.7-0.3-0.7-0.7V14.7z"/>
		</g>
	</g>
</g>
</svg>
