<svg xmlns="http://www.w3.org/2000/svg" viewBox="0 0 210.019 225.365"><defs><style>.a{fill:#6c757d;}.b{fill:none;}</style></defs><g transform="translate(0 0)"><g transform="translate(14.236 41.483)"><path class="a" d="M23.78,51.326,17.507,38.781c0-.116-.116-.232,0-.348l.116-.116a.427.427,0,0,1,.348-.116l13.591,3.6a.424.424,0,0,1,.232.581l-.465.581a.427.427,0,0,1-.348.116l-3.369-.929-4.3,5.111,1.51,3.02c0,.116.116.232,0,.348l-.465.581C24.128,51.559,23.9,51.559,23.78,51.326Zm2.556-9.641-6.621-1.742-.116.116,3.136,6.04Z" transform="translate(-17.456 -38.2)"/></g><g transform="translate(23.726 24.436)"><path class="a" d="M25.712,30.7a.353.353,0,0,1,0-.465l.348-.348,13.591,2.323h0l-6.737-7.667a.353.353,0,0,1,0-.465l.465-.465a.353.353,0,0,1,.465,0l8.48,9.641a.353.353,0,0,1,0,.465l-.232.232L28.384,31.627h0l6.854,7.783a.353.353,0,0,1,0,.465l-.581.465a.353.353,0,0,1-.465,0Z" transform="translate(-25.625 -23.525)"/></g><g transform="translate(38.025 15.415)"><path class="a" d="M41.612,19.292l-2.788,1.742c-.232.116-.348,0-.465-.116l-.348-.348a.287.287,0,0,1,.116-.465l6.854-4.3c.232-.116.348,0,.465.116l.348.465a.287.287,0,0,1-.116.465l-2.788,1.742,6.273,9.874c.116.116,0,.348-.116.465l-.581.348c-.116.116-.348,0-.465-.116Z" transform="translate(-37.934 -15.759)"/></g><g transform="translate(51.995 7.402)"><path class="a" d="M50.006,13.32c-.116-.232,0-.348.232-.465l.7-.348c.232-.116.348,0,.465.232l2.207,5.111,7.086-3.136L58.486,9.6c-.116-.232,0-.348.232-.465l.581-.232c.116-.116.348,0,.465.232l5.111,11.5c.116.232,0,.348-.232.465l-.7.232c-.232.116-.348,0-.465-.232l-2.323-5.227-7.086,3.136L56.4,24.24c.116.232,0,.348-.232.465l-.7.348c-.232.116-.348,0-.465-.232Z" transform="translate(-49.961 -8.861)"/></g><g transform="translate(70.742 2.894)"><path class="a" d="M66.1,6.746a.6.6,0,0,1,.232-.465l4.763-1.162a4.014,4.014,0,0,1,3.136,7.318L77.948,16.5a.326.326,0,0,1-.232.581l-.929.232a.427.427,0,0,1-.348-.116l-3.717-4.3-3.485.929L70.4,18.594a.6.6,0,0,1-.232.465l-.7.232A.6.6,0,0,1,69,19.059Zm6.505,5.111A2.822,2.822,0,0,0,74.58,8.488a2.756,2.756,0,0,0-3.253-1.975l-3.6.929L69,12.786Z" transform="translate(-66.1 -4.98)"/></g><g transform="translate(87.804)"><path class="a" d="M87.191,2.5A6.869,6.869,0,1,1,80.8,9.82,6.811,6.811,0,0,1,87.191,2.5ZM88,14.815A5.533,5.533,0,1,0,82.08,9.7,5.567,5.567,0,0,0,88,14.815Z" transform="translate(-80.788 -2.488)"/></g><g transform="translate(108.146 0.13)"><path class="a" d="M99.578,2.948a.371.371,0,0,1,.348-.348l4.182.465a4.259,4.259,0,1,1-.813,8.48l-3.02-.348L99.81,15.61a.371.371,0,0,1-.348.348l-.813-.116a.371.371,0,0,1-.348-.348Zm3.833,7.086a2.856,2.856,0,1,0,.465-5.692l-3.02-.348-.581,5.576Z" transform="translate(-98.3 -2.6)"/></g><g transform="translate(120.459 3.15)"><path class="a" d="M109.016,16.351l8.712-11.035a.427.427,0,0,1,.348-.116h.232a.25.25,0,0,1,.232.232l2.439,13.823c0,.232-.116.465-.465.348l-.7-.232c-.116,0-.232-.232-.232-.232l-.581-3.369L112.5,14.144l-2.091,2.672a.427.427,0,0,1-.348.116l-.7-.232C108.9,16.816,108.784,16.584,109.016,16.351Zm9.758-1.742c-.348-2.207-.813-4.53-1.162-6.737H117.5l-4.182,5.343Z" transform="translate(-108.9 -5.2)"/></g><g transform="translate(139.161 6.821)"><path class="a" d="M126.975,8.639c0-.232.232-.348.465-.232l.7.348c.116.116.232.232.232.348l-1.626,10.106h.116l7.086-7.9a.218.218,0,0,1,.348,0l.348.116c.116.116.232.232.232.348L133.6,22.346h.116l6.389-7.9c.116-.116.232-.116.465-.116l.7.348c.232.116.348.348.116.581l-8.6,10.222c-.116.116-.232.116-.465.116l-.232-.116c-.116,0-.232-.232-.232-.348l1.278-10.687h-.116l-7.2,8.015a.218.218,0,0,1-.348,0l-.232-.116c-.116-.116-.232-.232-.232-.348Z" transform="translate(-125 -8.361)"/></g><g transform="translate(155.259 17.622)"><path class="a" d="M145.993,17.823c.116-.116.348-.232.465-.116l.581.465c.116.116.232.348.116.465l-6.505,9.641,4.53,3.02a.287.287,0,0,1,.116.465l-.348.465c-.116.116-.348.232-.465.116l-5.46-3.717c-.116-.116-.232-.348-.116-.465Z" transform="translate(-138.859 -17.659)"/></g><g transform="translate(167.297 28.034)"><path class="a" d="M160.7,28.455a6.822,6.822,0,1,1-9.641.348A6.8,6.8,0,0,1,160.7,28.455Zm-8.364,9.061a5.506,5.506,0,1,0-.232-7.667A5.37,5.37,0,0,0,152.333,37.516Z" transform="translate(-149.222 -26.622)"/></g><g transform="translate(180.491 42.938)"><path class="a" d="M173.032,42.179a6.6,6.6,0,0,1,1.394,4.763c0,.232-.232.348-.465.348s-.465-.116-.7-.116-.348-.116-.232-.465a6.3,6.3,0,0,0-.929-3.833,5.374,5.374,0,0,0-7.55-.929,5.512,5.512,0,0,0-1.278,7.55,7.479,7.479,0,0,0,2.672,2.207l2.091-1.626-1.278-1.742a.353.353,0,0,1,0-.465l.581-.465a.287.287,0,0,1,.465.116l1.975,2.672a.287.287,0,0,1-.116.465l-3.485,2.672c-.116,0-.232.116-.348.116A9.3,9.3,0,0,1,162,50.427a6.78,6.78,0,0,1,1.394-9.641A6.956,6.956,0,0,1,173.032,42.179Z" transform="translate(-160.58 -39.453)"/></g><g transform="translate(189.991 55.597)"><path class="a" d="M174.15,57.494l3.485-6.97a.329.329,0,0,1,.581,0l.465.813c.116.116,0,.232,0,.348l-2.9,5.924,6.505.929c.116,0,.232.116.348.232l.465.813a.392.392,0,0,1-.349.581L174.963,59l-5.343,2.788c-.116.116-.348,0-.465-.116l-.348-.7c-.116-.232,0-.348.116-.465Z" transform="translate(-168.759 -50.35)"/></g><g transform="translate(3.201 156.192)"><path class="a" d="M16.371,137.124a.329.329,0,0,1,.581,0l.348.7c.116.116,0,.348,0,.348l-6.97,9.409v.116l11.616-1.162c.116,0,.232,0,.348.232l.348.7a.424.424,0,0,1-.232.581L8.356,149.321c-.116,0-.232,0-.348-.232v-.349c-.116-.116,0-.232,0-.348Z" transform="translate(-7.956 -136.95)"/></g><g transform="translate(10.843 171.391)"><path class="a" d="M24.717,150.111a.287.287,0,0,1,.465.116l4.646,5.924a.287.287,0,0,1-.116.465l-.465.348a.287.287,0,0,1-.465-.116l-3.949-4.995-3.6,2.9,3.369,4.3a.287.287,0,0,1-.116.465l-.465.348a.287.287,0,0,1-.465-.116l-3.369-4.3-3.833,3.02,3.949,4.995a.287.287,0,0,1-.116.465l-.465.348a.287.287,0,0,1-.465-.116l-4.646-5.924a.287.287,0,0,1,.116-.465Z" transform="translate(-14.534 -150.034)"/></g><g transform="translate(23.145 181.486)"><path class="a" d="M33.343,161.948,30.9,159.625a.353.353,0,0,1,0-.465l.348-.348a.353.353,0,0,1,.465,0l5.808,5.576a.353.353,0,0,1,0,.465l-.348.348a.353.353,0,0,1-.465,0l-2.439-2.323-8.131,8.48a.353.353,0,0,1-.465,0l-.465-.465a.353.353,0,0,1,0-.465Z" transform="translate(-25.125 -158.725)"/></g><g transform="translate(32.593 190.934)"><path class="a" d="M40.741,167.023c.116-.116.348-.232.465-.116l6.04,4.414c.116.116.232.348.116.465l-.348.465c-.116.116-.348.232-.465.116l-5.227-3.717-2.788,3.717,4.414,3.253c.116.116.232.348.116.465l-.348.465c-.116.116-.348.232-.465.116l-4.414-3.253-2.9,3.949,5.227,3.717c.116.116.232.348.116.465l-.348.581c-.116.116-.348.232-.465.116l-6.04-4.414c-.116-.116-.232-.348-.116-.465Z" transform="translate(-33.259 -166.859)"/></g><g transform="translate(46.504 199.182)"><path class="a" d="M51,174.123c.116-.116.348-.232.465-.116l4.414,2.323a4.1,4.1,0,0,1,1.859,5.576,4.509,4.509,0,0,1-4.3,2.207l.116,5.46a.406.406,0,0,1-.581.348l-.813-.465c-.116-.116-.232-.232-.232-.348l.116-5.692L48.8,181.79l-2.207,4.3c-.116.116-.348.232-.465.116l-.7-.348a.287.287,0,0,1-.116-.465Zm1.626,8.247a2.737,2.737,0,0,0,3.717-1.162,2.672,2.672,0,0,0-1.162-3.6l-3.253-1.742-2.556,4.879Z" transform="translate(-45.234 -173.959)"/></g><g transform="translate(62.495 205.967)"><path class="a" d="M63.3,180.032c.116-.232.232-.232.465-.232l.7.232c.232.116.232.232.232.465l-4.3,11.848c-.116.232-.232.232-.465.232l-.7-.232c-.232-.116-.232-.232-.232-.465Z" transform="translate(-59 -179.8)"/></g><g transform="translate(72.439 208.477)"><path class="a" d="M70.394,182.239c0-.232.232-.348.465-.232l.465.116,6.157,12.313h0l2.091-9.874c0-.232.232-.348.465-.232l.7.116c.232,0,.348.232.232.465l-2.672,12.545c0,.232-.232.348-.465.232l-.348-.116-6.273-12.545h0L69,195.133c0,.232-.232.348-.465.232l-.7-.116c-.232,0-.348-.232-.232-.465Z" transform="translate(-67.561 -181.961)"/></g><g transform="translate(90.676 211.659)"><path class="a" d="M83.306,197.478l6.273-12.545c.116-.116.116-.232.348-.232h.232c.116,0,.232.116.348.232l5.227,13.01c.116.232-.116.465-.348.465h-.813c-.116,0-.232-.116-.348-.232l-1.278-3.253-6.737-.232-1.51,3.136c0,.116-.116.232-.348.232h-.813C83.306,198.059,83.19,197.826,83.306,197.478Zm9.177-3.6c-.813-2.091-1.626-4.3-2.556-6.389h-.116l-3.02,6.157Z" transform="translate(-83.261 -184.7)"/></g><g transform="translate(109.075 211.287)"><path class="a" d="M99.1,185.333a.308.308,0,0,1,.348-.348l4.879-.581a4.172,4.172,0,0,1,4.646,3.6,4.234,4.234,0,0,1-2.323,4.182l3.136,4.53c.116.232.116.581-.232.581l-.929.116c-.116,0-.232-.116-.348-.116l-3.136-4.763-3.6.465.581,4.879a.308.308,0,0,1-.348.348l-.7.116a.308.308,0,0,1-.348-.348Zm5.924,5.808a2.688,2.688,0,1,0-.581-5.343l-3.717.465.581,5.46Z" transform="translate(-99.1 -184.38)"/></g><g transform="translate(122.888 207.215)"><path class="a" d="M117.274,189.035l-6.157-4.879c-.232-.232-.116-.581.116-.581l.813-.232a.427.427,0,0,1,.348.116l5.111,4.066,2.323-6.157a.25.25,0,0,1,.232-.232l.813-.232c.348-.116.465.116.465.465l-2.788,7.318,1.626,5.808a.6.6,0,0,1-.232.465l-.7.232a.6.6,0,0,1-.465-.232Z" transform="translate(-110.991 -180.874)"/></g><g transform="translate(147.069 198.004)"><path class="a" d="M135.4,173.822a6.633,6.633,0,0,1,4.879-.7c.232.116.348.232.232.465l-.232.7c0,.232-.232.348-.465.232a6.1,6.1,0,0,0-3.833.465,5.463,5.463,0,0,0,5.343,9.525,5.492,5.492,0,0,0,2.439-3.02c.116-.232.232-.232.349-.232l.7.116c.232,0,.232.232.232.465a6.5,6.5,0,0,1-3.136,3.833,6.759,6.759,0,1,1-6.505-11.848Z" transform="translate(-131.808 -172.944)"/></g><g transform="translate(162.974 190.314)"><path class="a" d="M148.985,180.468,145.5,166.877a.427.427,0,0,1,.116-.348l.116-.116a.218.218,0,0,1,.348,0L158.51,172.8a.329.329,0,0,1,0,.581l-.581.465c-.116.116-.348.116-.348,0l-3.02-1.626-5.227,4.182.813,3.369a.427.427,0,0,1-.116.348l-.581.465C149.333,180.816,149.1,180.7,148.985,180.468Zm4.53-8.712c-1.975-1.045-4.066-2.091-6.04-3.136l-.116.116,1.742,6.621Z" transform="translate(-145.5 -166.325)"/></g><g transform="translate(172.18 177.618)"><path class="a" d="M153.512,160.86a.353.353,0,0,1,0-.465l3.369-3.6a4.078,4.078,0,0,1,5.808-.348,4.211,4.211,0,0,1,.929,4.763l5.343,1.394c.232.116.465.348.232.581l-.7.7a.427.427,0,0,1-.348.116l-5.46-1.51-2.439,2.672,3.6,3.253a.353.353,0,0,1,0,.465l-.465.581a.353.353,0,0,1-.465,0Zm8.364.581a2.78,2.78,0,0,0-.232-3.949,2.74,2.74,0,0,0-3.833.232l-2.556,2.788,4.066,3.717Z" transform="translate(-153.425 -155.395)"/></g><g transform="translate(182.557 164.101)"><path class="a" d="M162.523,150.66c-.116-.116-.232-.348-.116-.465l4.182-6.273c.116-.116.348-.232.465-.116l.465.348c.116.116.232.348.116.465l-3.485,5.343,3.833,2.556,3.02-4.53c.116-.116.348-.232.465-.116l.465.348c.116.116.232.348.116.465l-3.02,4.53,4.066,2.672,3.485-5.343a.287.287,0,0,1,.465-.116l.465.349c.116.116.232.348.116.465l-4.182,6.273c-.116.116-.348.232-.465.116Z" transform="translate(-162.359 -143.759)"/></g><path class="b" d="M22.4,110.89A82.542,82.542,0,0,1,104.99,28.3" transform="translate(-2.42 1.683)"/><path class="a" d="M34.589,91.056c.232.581,2.672,1.278,2.672,1.859a.427.427,0,0,0,.116.348c.465.7,1.045,1.278,1.51,1.859l.116.116a6.8,6.8,0,0,0,.232,1.51,1.651,1.651,0,0,0,.232.7,11.03,11.03,0,0,1,1.162,1.975v.232a4.244,4.244,0,0,1-.348,1.742,11.445,11.445,0,0,0-.232,1.975c0,.465-.116,1.045-.116,1.51a.114.114,0,0,1-.116.116,1.1,1.1,0,0,0,.232,1.51c.465-.465,1.51-.232,1.742-1.162h.348l1.742-.7a6.586,6.586,0,0,0,1.51-.929,2.084,2.084,0,0,1,.813-.581l1.045-.7a5.053,5.053,0,0,0,.813-.7,2.539,2.539,0,0,0,.581-.348,6.259,6.259,0,0,0,1.51-.813A16.621,16.621,0,0,1,51.9,99.3a2.335,2.335,0,0,1,1.51-.465,1.651,1.651,0,0,0,.7-.232c.116,0,.116-.116.232-.116a3.706,3.706,0,0,1,2.439.465,1.252,1.252,0,0,0,.929.232l1.742-.7a16.934,16.934,0,0,1,2.207-.813,16.935,16.935,0,0,1,2.207-.813,16.8,16.8,0,0,0,2.556-1.045,17.874,17.874,0,0,1,2.207-.929c.7-.232.929-.232,1.278.465.116.232.232.581.348.813A14.11,14.11,0,0,1,71.3,98.491c.465,1.278,1.162,2.323,1.626,3.485l.581,1.859L73.967,105a26.2,26.2,0,0,0,1.278,2.556.518.518,0,0,0,.7.348,15.122,15.122,0,0,1,1.975-.929,2.257,2.257,0,0,1,1.51-.348l1.045.232v.7c-.116,0-.116,0-.116.116-.116.348-.116.7-.232,1.045a2.154,2.154,0,0,1-.232.813c-.232.7-.465,1.51-.7,2.207-.116.348-.116.581-.232.929l-.348,1.045v.348l-1.045.465-1.162.465-1.394.581-1.278.465-1.045.348-1.162.465-1.045.348c-.348.116-.813.232-1.162.348l-1.859.813-1.626.581c-.348.116-.813.232-1.162.348-.232.116-.581,0-.581.465.465.116.813.116,1.162.232.232.116.465.116.7.348a1.57,1.57,0,0,1,.813,1.859h0a3.2,3.2,0,0,1-.581,2.323,1.055,1.055,0,0,0-.348.813c-.116.348-.232.813-.348,1.162-.116.116-.116.348-.232.465a2.582,2.582,0,0,1-.929,1.51c-.348.232-.813.465-1.162.7.116.116.232.348.348.465a1.262,1.262,0,0,1,.813,1.394,6.912,6.912,0,0,1-.116,2.672,3.825,3.825,0,0,1-.813,1.51,4.172,4.172,0,0,1-1.162.813,24.858,24.858,0,0,1-2.556,1.162l-1.162.116H57.472a4.707,4.707,0,0,0-1.278,0c-.348-.116-.7-.116-1.045-.232l-1.742-.232-2.323-.232h-.116l-1.742-.348a32.618,32.618,0,0,0-4.763.116h-.929a17.812,17.812,0,0,0-4.3.232,5.655,5.655,0,0,1-1.394.116,25.394,25.394,0,0,1-5.924-.348l-2.091-.348-1.394-.232h-.116c-.348-.116-.813-.232-1.162-.348-.813-.116-1.51-.116-2.323-.232a.114.114,0,0,1-.116-.116l-1.278-.581c-.465-.116-.813-.232-1.278-.348a5.663,5.663,0,0,0-1.278-.465c-.581-.116-.7-.116-.581-.7a1.319,1.319,0,0,0-.348-.929,1.491,1.491,0,0,1-.465-1.162c0-.7.116-1.394.116-2.091,0-.232.116-.581.116-.813a.881.881,0,0,1,.232-.465,7.513,7.513,0,0,1-1.51.465,4.837,4.837,0,0,1-3.136-.348,12.7,12.7,0,0,0-1.742-.929,2.213,2.213,0,0,1-1.162-.581H12.17l-.348-.116.348-.116c-.232-.7-.581-1.278-.813-1.975-.116-.232,0-.465-.116-.581a5.4,5.4,0,0,1-.348-1.045,1.047,1.047,0,0,0-.116-.581,8.705,8.705,0,0,1-.581-1.859c0-.232-.232-.348-.348-.465a4.765,4.765,0,0,0-1.278-.116c-.232,0-.348-.116-.581-.116a1.651,1.651,0,0,0-.7-.232.736.736,0,0,1-.7-.581V116.96a6.578,6.578,0,0,0-.348-2.091,3.392,3.392,0,0,1-.232-1.045,11.27,11.27,0,0,0-.116-1.975V111.5a5.426,5.426,0,0,1-.348-1.975.828.828,0,0,0-.348-.7v-1.162a7.4,7.4,0,0,1,.232-.813A4.38,4.38,0,0,1,6.826,105a1.16,1.16,0,0,0,.465-.581c.116-.232.232-.348.232-.581a.406.406,0,0,1,.116-.232c.7.348.813.232.929.116a4.855,4.855,0,0,1,1.162-.465,1.977,1.977,0,0,1,.813-.116,7.844,7.844,0,0,0,.232-1.626,9.048,9.048,0,0,1,.465-2.439c.232-.581.465-1.162.7-1.626a23.035,23.035,0,0,0,1.278-2.323,1.047,1.047,0,0,0,.116-.581c.116-.465.232-1.045.348-1.51a6.9,6.9,0,0,1,.465-.929,15.744,15.744,0,0,1,2.323.232,10.314,10.314,0,0,0,2.672.116,1.977,1.977,0,0,0,.813-.116.6.6,0,0,1,.465.232c0,.116.232.232.348.232A.25.25,0,0,0,21,92.566c.116-.348,1.51-.7,1.626-1.045.116-.7,1.278-.116,1.742-.7a17.378,17.378,0,0,0,1.278-1.51m19.167,24.975a19.579,19.579,0,0,0-1.394-3.253l-1.045.7a.6.6,0,0,0-.232.465,4.324,4.324,0,0,1-.232,2.091c-.116.465-.348.813-.465,1.278l.348.348.7-.465-.232-.581.581.232c0-.116-.116-.116-.116-.232v-.232h.232a.661.661,0,0,0,.813-.465.427.427,0,0,1,.116-.348l.232.348C44.23,114.289,44.811,114.289,44.811,114.289ZM26.69,62.6a4.4,4.4,0,0,1,2.788,4.3l.581.232a22.921,22.921,0,0,1,3.02-.813,9.442,9.442,0,0,1,4.414.465,12.874,12.874,0,0,1,3.485,1.394,2.3,2.3,0,0,1,1.278,1.278c.116.116.116.116.232.116a4.621,4.621,0,0,1,3.485,2.091,8.41,8.41,0,0,1,1.278,3.6A1.85,1.85,0,0,0,48.644,77l-.813-.116V77l.813.348a2.428,2.428,0,0,1-1.975-.465l.232.232.232.232-.348-.116h0l.348.232-.116.116-1.162-.929.116.348h0l-.116-.348-.232.116.232.929-.348-.116c-.232.7-.348,1.394-.581,2.091A9.261,9.261,0,0,1,44,81.531h.581c-.116.116-.232.232-.348.232a.564.564,0,0,0-.348.7h0a3.9,3.9,0,0,0,.581,1.626c.581.813.348,1.278-.581,1.394a.75.75,0,0,0-.7.7h0c0,.7,0,.7-.581.929.348.581.232.813-.348,1.162-.116.116-.348.232-.348.465a1.787,1.787,0,0,1-1.742,1.742,4.253,4.253,0,0,1-2.091-.465A11.316,11.316,0,0,1,36.8,89.43a.9.9,0,0,0-1.162.232c-.581.7,0,1.51-.581,2.207a.894.894,0,0,0-.116,1.162c.348.813.813,1.51,1.162,2.323.116.348.348.7.465,1.045.116.232.116.581-.116.7h0a.218.218,0,0,1-.348,0c-4.53-.581-7.9-1.162-12.429-1.742a.772.772,0,0,1-.581-.465,1.17,1.17,0,0,1,.116-.348c1.278-1.859-1.045-2.091.7-3.485,1.162-.929,2.323-2.091,3.485-3.02.581-.7,1.278-1.394,1.626-1.742a.427.427,0,0,0,.116-.348l-.116-.116c-.116-.116-.116-.116-.232-.116-1.394-.232-1.278-1.742-1.975-2.9a11.031,11.031,0,0,1-1.51-3.833,7.16,7.16,0,0,1,.7-4.879c.348-.581.465-1.278.813-1.975l-1.045.465a1.692,1.692,0,0,0-.7,1.045c-.232,1.045-.348,2.091-.581,3.136a4.294,4.294,0,0,1-.581,1.278l-.7.7a4.118,4.118,0,0,1-3.833.813l-1.742-.116a3.687,3.687,0,0,0,1.51-3.02l-.581.232a2.18,2.18,0,0,0-.232-2.207c-.116-.348-.465-.581-.581-.929a6.072,6.072,0,0,0-.813-1.394,7.718,7.718,0,0,1-1.045-3.136v-.232l.232-1.51a4.126,4.126,0,0,1,.465-1.045,7.732,7.732,0,0,1,6.97-4.3H23.9l1.742.232a4.126,4.126,0,0,0,1.045.465Z" transform="translate(-5.2 7.113)"/><path class="a" d="M184.149,129.854c-.929-.349-2.556-3.949-2.323-4.995v-3.253a13.577,13.577,0,0,1-.7-2.323,1.473,1.473,0,0,0-.116-.7c-.348-1.045-.813-1.975-1.278-3.02a50.441,50.441,0,0,0-3.253-5.343c-.581-.813-1.394-1.51-1.975-2.323a24.854,24.854,0,0,1-1.162-2.556c-1.045-1.394-1.162-3.369-2.672-4.414-.116,0-.116-.116-.116-.232.232-.929-.465-1.394-.813-1.975s-1.045-1.51-1.626-2.323a7.406,7.406,0,0,0-.929-1.626c-1.626-1.51-3.253-3.02-4.763-4.53a1.962,1.962,0,0,0-.581-.232l-1.045-.465c1.278-.348,1.045-1.162.813-2.091a2.376,2.376,0,0,1-1.278,0,1.16,1.16,0,0,1-.581-.465,1.57,1.57,0,0,0-.813-1.859L156.5,83.041l-.348-.7.116-.116-2.556-3.369.348-.813-1.742-1.278.7-.581a18.145,18.145,0,0,1-2.207-1.51,4,4,0,0,1-1.394-1.394c-.465-1.859-2.323-1.975-3.136-3.369a3.2,3.2,0,0,0-1.626-1.394c-1.626-1.045-3.02-4.763-3.949-6.505l-.929-.116a10.5,10.5,0,0,0-.929,2.439,13.022,13.022,0,0,1-1.045,4.182c-.348.929-1.975,1.626-2.556,1.975a1.19,1.19,0,0,0-.7.581,26.1,26.1,0,0,0-2.207,4.414,8.78,8.78,0,0,1-3.485,4.414c-.929.7-1.859,1.51-2.788,2.091l-1.394.7-.116.465a9.69,9.69,0,0,0,.929,1.394,31.154,31.154,0,0,0,3.485,3.253,3.146,3.146,0,0,0,3.02.581c1.162-.348,2.207-1.394,3.717-.348a32.839,32.839,0,0,0-1.278,3.6,5.029,5.029,0,0,0-.116,1.859,7.094,7.094,0,0,1,.348,1.51c-.116,1.626.7,2.788,1.162,4.182s.929,2.672.232,3.833a4.126,4.126,0,0,1,.465,1.045c0,.929-.116,1.859-.116,2.788.116,1.162-.232,2.556,1.394,2.9.116.116.232.232.232.348.929.929.465,2.091.232,3.02a39.754,39.754,0,0,1-1.51,3.949c-.465,1.278-1.742,1.975-1.859,3.485,0,.116,0,.116-.116.232l-1.51,2.323a3.565,3.565,0,0,0-.929,2.788,1.056,1.056,0,0,1-.465.929c-1.278.348-1.51,1.859-2.439,2.556s-1.975,1.975-2.9,1.975a6.6,6.6,0,0,0-3.833,1.278,5.83,5.83,0,0,1,.232,1.394c-.232,1.045.232,1.394,1.045,1.51.581.116,1.278.348,1.859.465h.465l.232-.232c1.278-.116,2.672.116,3.717-1.045a1.252,1.252,0,0,1,.929.232c.581,0,0-1.045.465-1.162a16.937,16.937,0,0,0,2.207-.813c.232-.116.348-.348.581-.581,1.045-.7,1.626-2.091,3.136-1.626a.881.881,0,0,0,.465-.232,2.9,2.9,0,0,1,2.207-2.091,1.294,1.294,0,0,0,.7-1.626v-.116a1.89,1.89,0,0,1,.7-1.975c.813-.813,1.742-1.51,2.556-2.323v-.581a2.1,2.1,0,0,1,.232-1.162,7.4,7.4,0,0,1,2.091-1.162.849.849,0,0,1,1.162.465h0c.116.116.116.232.116.465.116.813,4.182,2.672,4.53,3.485a5.253,5.253,0,0,0,2.207,2.556c.465.348-.348,1.045.348,1.51.348.465-.7,1.045-.813,1.626a1.491,1.491,0,0,1-1.162.465c-1.394,0,1.975-.116.581,0a11.933,11.933,0,0,0-2.9.813c0,.232-.116.465-.116.929-.348,2.207-.232,2.556,1.742,2.672,1.742.232-1.162,0,.581.116,1.162,0,1.51-.116,2.091.581a3.832,3.832,0,0,0,2.788,1.394,17.467,17.467,0,0,0,3.485,0,4.727,4.727,0,0,1,1.162.232c.348-1.394.929,0,1.278-.116s.465.232.7.232c1.626-.348,3.369-.7,4.995-1.045a1.612,1.612,0,0,0,.813.929,12.68,12.68,0,0,0,1.975-1.51,5.885,5.885,0,0,1,1.51-.232,1.872,1.872,0,0,1,.813.465l.348.348h4.879a2.083,2.083,0,0,0,.813.581h1.859" transform="translate(13.789 7.113)"/><path class="a" d="M168.639,116.9a42.438,42.438,0,0,0,5.343.813h.581l1.394-.348a6.316,6.316,0,0,1,2.091,0,6.752,6.752,0,0,1,2.9,1.045,6.07,6.07,0,0,0,1.742.813,4.161,4.161,0,0,1,1.278.465l1.51.7a4.708,4.708,0,0,1,1.045.581c.116.116.116.116,0,.116h-1.162c-.116,0-.116.116,0,.232s.581.232.813.465a2.529,2.529,0,0,1,.929.581,7.664,7.664,0,0,1,1.859,3.253,7.4,7.4,0,0,1,.232.813,1.473,1.473,0,0,1-.116.7,2.555,2.555,0,0,0-.232,1.626,4.485,4.485,0,0,1-.348,2.439l-.348.348c-.116,0-.232-.116-.348-.232a1.726,1.726,0,0,0-.116-.7c-.116-.232-.116-.348-.232-.581-.116,0-.116,0-.116.116a1.047,1.047,0,0,0-.116.581,5.538,5.538,0,0,1-1.394,2.556c-.232.232-.581.465-.813.7l-1.394.7a8.139,8.139,0,0,0-1.626.348,12.9,12.9,0,0,1-1.859.813c-.232.116-.581.232-.813.348h-.7a.7.7,0,0,1-.116-.465c0-.116.465-.465.465-.465h-.465a3.581,3.581,0,0,1-2.207,0h-.465a9.1,9.1,0,0,0-1.626.581c-.348.116-.465.116-.581,0s0-.465,0-.581.232-.348.232-.465.116-.116-.116-.116-.465.116-.7.116-.7.348-1.045.116a2.342,2.342,0,0,0-1.278-.348h-.7a.881.881,0,0,1-.465-.232c-.116-.116.116-.232.116-.348s.348-.465.232-.465c-.581-.465-.929-.929-.348-1.626l.7-.7c.232-.232.116-.232.465-.581a3.007,3.007,0,0,1,1.278-.813c.465-.232,1.626-.465,1.975-.7a9.261,9.261,0,0,0,1.859-.929c.348-.232.465-.465.232-.465h0c.116,0,.116-.116,0-.116h-.348a.7.7,0,0,0-.465.116c-.116,0-.465.116-.465,0s0,0-.116,0a8.734,8.734,0,0,0-1.742,0l-1.045.116c-.232,0-.232-.116-.348-.116s0-.116-.116-.116H169.8a9.414,9.414,0,0,1-2.556,0H166.2" transform="translate(20.819 16.002)"/><path class="a" d="M97.26,131.391c-.813.348-1.51.116-2.439,1.045a31.443,31.443,0,0,0-3.253,4.763,4.115,4.115,0,0,1-5.227,1.859c-2.091-.7-2.556-2.323-1.162-3.949,1.162-1.278,2.323-2.439,3.6-3.6a6.639,6.639,0,0,0,.813-.929l-.232-.348c-2.207.929-4.414,1.975-6.621,3.02-.581.232-1.162.7-1.742.929a3.419,3.419,0,0,1-4.646-1.278.427.427,0,0,1-.116-.348,3.128,3.128,0,0,1,1.859-4.182.7.7,0,0,1,.465-.116c1.859-.581,3.833-.813,5.692-1.278l1.162-.348a.36.36,0,0,1-.116-.232c-3.949-1.859-5.111-7.9-2.9-11.616a31.929,31.929,0,0,1,2.672-3.833c1.51-1.742,3.02-3.369,3.136-5.924h.348l1.859,4.066c1.162-1.626,2.207-3.485,3.6-5.111a9.826,9.826,0,0,0,2.323-6.389,7.985,7.985,0,0,1,.581-2.788c.7,3.136,3.253,4.879,5.111,7.2a17.109,17.109,0,0,1,3.485,7.318c.116.7.348,1.394.581,2.323,1.045-2.091.348-3.833.232-5.692,2.091,3.02,5.227,5.46,5.576,9.409.465,4.414-1.394,8.015-5.227,10.687l4.763.7c1.278.232,2.439.348,3.717.581,1.742.348,2.672,1.162,2.556,2.207a3.581,3.581,0,0,1-3.02,3.253,9.9,9.9,0,0,1-2.672-.348c-2.323-.7-4.53-1.394-6.737-2.091a1.612,1.612,0,0,0-1.045,0c1.394.813,2.788,1.51,3.949,2.323a6.365,6.365,0,0,1,1.859,2.091,2.068,2.068,0,0,1-.929,2.556,3.321,3.321,0,0,1-3.833.232,19.8,19.8,0,0,1-2.207-2.207,21.572,21.572,0,0,0-4.763-3.833" transform="translate(6.24 12.43)"/></g></svg>