<?xml version="1.0" encoding="utf-8"?>
<!-- Generator: Adobe Illustrator 22.1.0, SVG Export Plug-In . SVG Version: 6.00 Build 0)  -->
<svg version="1.1" id="Layer_1" xmlns="http://www.w3.org/2000/svg" xmlns:xlink="http://www.w3.org/1999/xlink" x="0px" y="0px"
	 viewBox="0 0 66.1 26.2" style="enable-background:new 0 0 66.1 26.2;" xml:space="preserve">
<style type="text/css">
	.st0{fill:#010101;}
</style>
<title>logo_notext</title>
<g id="Layer_2_1_">
	<g id="Layer_1-2">
		<path class="st0" d="M9.1,9.2C9.2,9.4,10,9.6,10,9.8c0,0,0,0.1,0,0.1l0.5,0.6l0,0c0,0.2,0,0.3,0.1,0.5c0,0.1,0,0.2,0.1,0.2
			c0.1,0.2,0.3,0.4,0.4,0.6c0,0,0,0.1,0,0.1c0,0.2,0,0.4-0.1,0.5c0,0.2-0.1,0.4-0.1,0.6c0,0.2,0,0.3-0.1,0.5l0,0
			c-0.1,0.2-0.1,0.4,0.1,0.5c0.2-0.1,0.5-0.1,0.5-0.4h0.1l0.5-0.2c0.2-0.1,0.3-0.2,0.5-0.3c0.1-0.1,0.2-0.1,0.2-0.2l0.3-0.2
			c0.1-0.1,0.2-0.1,0.3-0.2c0.1,0,0.1-0.1,0.2-0.1c0.2-0.1,0.3-0.1,0.5-0.2c0.2-0.2,0.4-0.3,0.6-0.4c0.1-0.1,0.3-0.1,0.5-0.1
			c0.1,0,0.2,0,0.2-0.1h0.1c0.3,0,0.5,0,0.8,0.1c0.1,0.1,0.2,0.1,0.3,0.1c0.2-0.1,0.4-0.1,0.5-0.2c0.2-0.1,0.5-0.2,0.7-0.3
			c0.2-0.1,0.5-0.2,0.7-0.3c0.3-0.1,0.5-0.2,0.8-0.3c0.2-0.1,0.5-0.2,0.7-0.3c0.2-0.1,0.3-0.1,0.4,0.1s0.1,0.2,0.1,0.3
			c0.1,0.2,0.2,0.5,0.3,0.7c0.1,0.4,0.4,0.7,0.5,1.1l0.3,0.5l0.2,0.4c0.1,0.3,0.3,0.5,0.4,0.8c0,0.1,0.1,0.1,0.2,0.1
			c0.2-0.1,0.4-0.2,0.6-0.3c0.1-0.1,0.3-0.1,0.5-0.1l0.3,0.1v0.2h0c0,0.1,0,0.2-0.1,0.3s0,0.2-0.1,0.3l-0.2,0.7c0,0.1,0,0.2-0.1,0.3
			s-0.1,0.2-0.1,0.3c0,0,0,0.1,0,0.1l-0.3,0.1l-0.4,0.1l-0.4,0.2L21.5,17l-0.3,0.1l-0.4,0.1l-0.3,0.1l-0.4,0.1l-0.6,0.3L19,17.9
			c-0.1,0-0.2,0.1-0.4,0.1c-0.1,0-0.2,0-0.2,0.1l0.4,0.1l0.2,0.1c0.2,0.1,0.3,0.4,0.3,0.6l0,0c0,0.3,0,0.5-0.2,0.7
			c-0.1,0.1-0.1,0.2-0.1,0.2c0,0.1-0.1,0.2-0.1,0.4c0,0.1,0,0.1-0.1,0.2c0,0.2-0.1,0.4-0.3,0.5c-0.1,0.1-0.2,0.2-0.4,0.2
			c0,0.1,0.1,0.1,0.1,0.1c0.2,0.1,0.3,0.2,0.3,0.4c0.1,0.3,0.1,0.6,0,0.8c-0.1,0.2-0.1,0.4-0.3,0.5c-0.1,0.1-0.2,0.2-0.4,0.3
			c-0.3,0.1-0.5,0.3-0.8,0.4h-0.4h-0.3c0,0-0.4,0-0.4,0l-0.3,0l-0.5-0.1l-0.7-0.1l0,0c-0.2,0-0.4-0.1-0.5-0.1c-0.5,0-1,0-1.5,0
			c-0.1,0-0.2,0-0.3,0c-0.5,0-0.9,0-1.4,0c-0.1,0-0.3,0.1-0.4,0c-0.6,0-1.3,0-1.9-0.1c-0.2-0.1-0.4-0.1-0.7-0.1l-0.4-0.1l0,0
			c-0.1,0-0.2-0.1-0.4-0.1c-0.2,0-0.5,0-0.7-0.1H6.2L5.7,23c-0.1-0.1-0.3-0.1-0.4-0.1l-0.4-0.1c-0.2,0-0.2,0-0.2-0.2
			c0-0.1,0-0.2-0.1-0.3c-0.1-0.1-0.1-0.2-0.2-0.4c0-0.2,0-0.5,0.1-0.7c0-0.1,0-0.2,0-0.2l0.1-0.2c-0.2,0.1-0.3,0.1-0.5,0.1
			c-0.3,0.1-0.7,0-1-0.1c-0.2-0.1-0.4-0.2-0.6-0.3c-0.1,0-0.3-0.1-0.4-0.2h0H2l0.1,0c-0.1-0.2-0.2-0.4-0.3-0.6c0-0.1,0-0.1,0-0.2
			s-0.1-0.2-0.1-0.3c0-0.1,0-0.1,0-0.2c-0.1-0.2-0.2-0.4-0.2-0.6c0-0.1-0.1-0.1-0.1-0.1c-0.1,0-0.3,0-0.4,0l-0.2,0l-0.2-0.1
			c-0.1,0-0.2-0.1-0.2-0.2l0,0v-0.4c0-0.2,0-0.4-0.1-0.7c0-0.1-0.1-0.2-0.1-0.3c0-0.2,0-0.4,0-0.6v-0.1c-0.1-0.2-0.1-0.4-0.1-0.6
			c0.1-0.1,0-0.2,0-0.3c0,0-0.1,0-0.2,0v-0.4c0-0.1,0.1-0.2,0.1-0.3c0.1-0.2,0.2-0.4,0.4-0.6c0.1-0.1,0.1-0.1,0.1-0.2
			c0-0.1,0.1-0.1,0.1-0.2c0,0,0-0.1,0.1-0.1c0,0,0-0.1,0.1-0.1C1,13.1,1.1,13,1.3,13h0.3c0-0.2,0.1-0.4,0.1-0.5
			c0-0.3,0.1-0.5,0.2-0.8c0.1-0.2,0.1-0.3,0.2-0.5c0.1-0.3,0.3-0.5,0.4-0.7c0-0.1,0-0.1,0-0.2c0-0.1,0.1-0.3,0.1-0.5
			s0.1-0.2,0.2-0.3c0.2,0,0.5,0,0.7,0.1c0.3,0,0.6,0,0.8,0h0.3c0.1,0,0.1,0,0.1,0.1c0,0,0.1,0.1,0.1,0.1c0,0,0,0,0,0
			c0,0,0.1,0,0.1-0.1c0-0.1,0.5-0.2,0.5-0.3s0.4,0,0.6-0.2c0,0,0.4-0.4,0.4-0.5 M12.3,16.5c-0.1-0.3-0.3-0.7-0.4-1
			c-0.1,0.1-0.2,0.1-0.3,0.2c0,0-0.1,0.1-0.1,0.1c0,0.2,0,0.5-0.1,0.7c-0.1,0.1-0.1,0.3-0.1,0.4l0.1,0.1l0.2-0.2l-0.1-0.2l0.2,0.1
			v-0.1v-0.1h0.1c0.1,0,0.2,0,0.3-0.1v-0.1l0.1,0.1L12.3,16.5L12.3,16.5z M6.6,0.2C7.2,0.4,7.5,1,7.5,1.6l0.2,0.1
			C8,1.6,8.3,1.5,8.6,1.4c0.5-0.1,0.9,0,1.4,0.1c0.4,0.1,0.8,0.3,1.1,0.5c0.2,0.1,0.3,0.2,0.4,0.4c0,0,0.1,0,0.1,0
			c0.5,0,0.9,0.3,1.1,0.7c0.2,0.4,0.3,0.7,0.4,1.1c0,0.2,0.2,0.5,0.4,0.5h-0.2l0,0l0.3,0.1c-0.2,0-0.4,0-0.6-0.1L13,4.8
			c0,0,0.1,0.1,0.1,0.1L13,4.8l0,0l0.1,0.1l0,0l-0.4-0.3v0.1l0,0V4.6l0,0l0.1,0.3h-0.1c-0.1,0.2-0.1,0.4-0.2,0.6
			c-0.1,0.2-0.2,0.4-0.3,0.6h0.2l-0.1,0.1c-0.1,0-0.1,0.1-0.1,0.2l0,0c0,0.2,0.1,0.4,0.2,0.5c0.2,0.3,0.1,0.4-0.2,0.4
			c-0.1,0-0.2,0.1-0.2,0.2l0,0c0,0.2,0,0.2-0.2,0.3c0.1,0.2,0.1,0.3-0.1,0.3c-0.1,0-0.1,0.1-0.1,0.1C11.5,8.7,11.3,9,11,9
			c-0.2,0-0.5-0.1-0.7-0.1C10.2,8.8,10,8.7,9.9,8.7c-0.1-0.1-0.3,0-0.4,0.1C9.3,9,9.5,9.2,9.3,9.4c-0.1,0.1-0.1,0.3,0,0.4
			c0.1,0.2,0.3,0.5,0.4,0.7s0.1,0.2,0.2,0.3c0.1,0.1,0.1,0.2,0,0.2c0,0,0,0,0,0c0,0-0.1,0-0.1,0C8.1,11,7,10.8,5.6,10.6
			c-0.1,0-0.2-0.1-0.2-0.1c0,0,0,0,0,0c0-0.1,0-0.1,0.1-0.1c0.4-0.6-0.3-0.7,0.2-1.1c0.3-0.3,0.7-0.6,1.1-0.9C7,8.1,7.2,7.8,7.3,7.7
			c0,0,0-0.1,0-0.1l0,0c0,0-0.1,0-0.1,0C6.7,7.5,6.8,7.1,6.6,6.7C6.4,6.3,6.2,5.9,6.1,5.5C6,5,6.1,4.4,6.3,3.9
			c0.1-0.2,0.2-0.4,0.3-0.6L6.2,3.5C6.1,3.5,6,3.6,6,3.8C6,4.1,5.9,4.4,5.8,4.8c0,0.1-0.1,0.3-0.2,0.4C5.6,5.3,5.5,5.3,5.4,5.4
			C5.1,5.7,4.7,5.8,4.2,5.7L3.8,5.6C4.1,5.4,4.3,5,4.2,4.6L4.1,4.7C4.2,4.5,4.2,4.2,4,3.9C3.9,3.8,3.9,3.8,3.8,3.7S3.6,3.4,3.5,3.2
			c-0.2-0.3-0.3-0.6-0.3-1V2.2l0.1-0.5c0-0.1,0.1-0.2,0.2-0.4C3.9,0.5,4.7,0,5.6,0h0.1l0.6,0.1C6.4,0.1,6.5,0.1,6.6,0.2L6.6,0.2z"/>
		<path class="st0" d="M62.3,21.4c-0.4-0.4-0.7-1-0.7-1.6c0-0.2,0-0.4,0-0.5v-0.5c-0.1-0.2-0.2-0.5-0.2-0.7c0-0.1,0-0.1,0-0.2
			c-0.1-0.3-0.3-0.6-0.4-0.9c-0.3-0.6-0.6-1.1-1-1.7c-0.2-0.3-0.4-0.5-0.6-0.7S59.1,14,59,13.7c-0.3-0.4-0.4-1.1-0.8-1.4
			c0,0,0,0,0-0.1c0.1-0.3-0.1-0.4-0.3-0.6s-0.3-0.5-0.5-0.7c-0.1-0.2-0.2-0.4-0.3-0.5c-0.5-0.5-1-1-1.5-1.4c-0.1,0-0.1-0.1-0.2-0.1
			L55,8.7c0.4-0.1,0.3-0.4,0.2-0.7c-0.1,0-0.3,0-0.4,0c-0.1,0-0.2-0.1-0.2-0.1c0.1-0.2,0-0.5-0.3-0.6c-0.3-0.2-0.5-0.4-0.8-0.7
			c-0.1-0.1-0.1-0.2-0.1-0.2h0.1l-0.8-1.1l0.1-0.2l-0.6-0.4l0.2-0.2c-0.3-0.2-0.5-0.3-0.7-0.5c-0.2-0.1-0.3-0.2-0.4-0.4
			c-0.1-0.6-0.7-0.6-1-1.1c-0.1-0.2-0.3-0.4-0.5-0.4c-0.6-0.6-1-1.3-1.3-2.1h-0.3c-0.1,0.2-0.2,0.5-0.3,0.8c0,0.5-0.1,0.9-0.3,1.3
			c-0.1,0.3-0.6,0.5-0.8,0.6c-0.1,0-0.2,0.1-0.2,0.2c-0.3,0.4-0.5,0.9-0.7,1.4c-0.2,0.6-0.6,1-1.1,1.4c-0.3,0.2-0.6,0.5-0.9,0.7
			c-0.1,0.1-0.3,0.2-0.5,0.2v0.2c0.1,0.2,0.2,0.3,0.3,0.4c0.3,0.4,0.7,0.7,1.1,1c0.3,0.2,0.6,0.3,0.9,0.2c0.3-0.1,0.7-0.5,1.2-0.1
			c-0.1,0.4-0.3,0.8-0.4,1.1c-0.1,0.2-0.1,0.4-0.1,0.6c0.1,0.2,0.1,0.3,0.1,0.5c0,0.5,0.1,0.9,0.3,1.3c0.2,0.4,0.2,0.8,0.1,1.2
			c0.1,0.1,0.1,0.2,0.1,0.3c0,0.3,0,0.6,0,0.9s-0.1,0.8,0.4,0.9c0,0,0.1,0.1,0.1,0.1c0.3,0.3,0.2,0.6,0.1,1
			c-0.1,0.4-0.3,0.8-0.5,1.2c-0.2,0.4-0.5,0.6-0.6,1.1v0.1c-0.2,0.3-0.3,0.5-0.5,0.7c-0.2,0.2-0.3,0.6-0.3,0.9c0,0.1,0,0.2-0.1,0.3
			c-0.4,0.1-0.5,0.6-0.8,0.8S44.5,22,44.2,22c-0.4,0-0.9,0.2-1.2,0.4c0.1,0.1,0.1,0.3,0.1,0.5c-0.1,0.3,0.1,0.4,0.3,0.5
			c0.2,0,0.4,0.1,0.6,0.2h0.1l0.1,0c0.4,0.1,0.8-0.1,1.2-0.3c0.1,0,0.2,0,0.3,0c0.2,0,0-0.3,0.2-0.4c0.2-0.1,0.5-0.1,0.7-0.3
			l0.2-0.2c0.3-0.2,0.5-0.6,1-0.5c0.1,0,0.1,0,0.1-0.1c0.1-0.3,0.4-0.6,0.7-0.7c0.2-0.1,0.3-0.3,0.2-0.5l0,0c-0.1-0.2,0-0.5,0.2-0.6
			l0.8-0.8c0-0.1,0-0.1,0-0.2c0-0.1,0-0.3,0.1-0.4c0.2-0.2,0.4-0.3,0.7-0.4c0.1-0.1,0.3,0,0.4,0.1c0,0,0,0,0,0c0,0,0,0.1,0,0.1
			c0,0.2,1.3,0.9,1.4,1.1c0.1,0.3,0.4,0.6,0.7,0.8c0.1,0.1-0.1,0.3,0.1,0.5s-0.2,0.3-0.3,0.5c-0.1,0.1-0.2,0.1-0.4,0.1
			c-0.4,0,0.6,0,0.2,0c-0.3,0-0.6,0.1-0.9,0.3c0,0.1,0,0.2,0,0.3c-0.1,0.7-0.1,0.8,0.6,0.9s-0.4,0,0.2,0c0.3,0,0.5,0,0.6,0.2
			c0.2,0.3,0.5,0.4,0.9,0.4c0.4,0,0.7,0,1.1,0c0.1,0,0.4,0.1,0.4,0.1c0.1-0.4,0.3,0,0.4,0s0.2,0.1,0.2,0.1l1.6-0.3
			c0.1,0.1,0.1,0.2,0.3,0.3c0.2-0.1,0.4-0.3,0.6-0.5c0.1-0.1,0.3-0.1,0.4-0.1c0.1,0,0.2,0.1,0.3,0.1c0,0,0.1,0.1,0.1,0.1h1.5
			c0.1,0.1,0.2,0.1,0.2,0.2c0.2,0,0.4,0,0.6,0"/>
		<path d="M59.6,20.1c0.6,0.1,1.1,0.2,1.7,0.2c0.3,0,0,0,0.2,0c0.1,0,0.3-0.1,0.5-0.1c0.2,0,0.4,0,0.7,0c0.3,0,0.6,0.2,0.9,0.3
			c0.2,0.1,0.3,0.2,0.5,0.2c0.1,0,0.3,0.1,0.4,0.1l0.5,0.2c0.1,0,0.2,0.1,0.3,0.2c0,0,0,0,0,0c-0.1,0-0.2,0-0.4,0c0,0,0,0,0,0.1
			s0.2,0.1,0.2,0.1c0.1,0,0.2,0.1,0.3,0.2c0.3,0.3,0.5,0.6,0.6,1c0,0.1,0,0.2,0.1,0.2c0,0.1,0,0.1,0,0.2C66,23.4,66,23.6,66,23.8
			c0,0.3,0,0.5-0.1,0.8c0,0-0.1,0.1-0.1,0.1c0,0-0.1,0-0.1-0.1c0,0,0,0,0,0c0,0,0-0.2,0-0.2c0-0.1,0-0.1-0.1-0.2l0,0
			c0,0.1,0,0.1,0,0.2c-0.1,0.3-0.2,0.6-0.4,0.8c-0.1,0.1-0.2,0.2-0.3,0.2c-0.1,0.1-0.3,0.2-0.4,0.2c-0.2,0.1-0.4,0.1-0.5,0.1
			S63.5,26,63.4,26l-0.3,0.1c-0.1,0-0.2,0-0.2,0s0-0.1,0-0.2s0.2-0.1,0.2-0.1s-0.1,0-0.1,0c-0.2,0.1-0.5,0.1-0.7,0c0,0,0,0-0.1,0
			S61.7,26,61.6,26c-0.1,0-0.1,0-0.2,0c0,0,0-0.1,0-0.2s0.1-0.1,0.1-0.1s0,0,0,0s-0.1,0-0.2,0s-0.2,0.1-0.3,0
			c-0.1-0.1-0.3-0.1-0.4-0.1c-0.1,0-0.2,0-0.2,0c0,0.1-0.1,0.2-0.2,0.1c0,0-0.1,0-0.1-0.1c0,0,0-0.1,0-0.1s0.1-0.1,0.1-0.2
			c-0.2-0.1-0.3-0.3-0.1-0.5l0.2-0.2c0-0.1,0.1-0.1,0.1-0.2c0.1-0.1,0.3-0.2,0.4-0.3l0.6-0.2c0.2-0.1,0.4-0.2,0.6-0.3
			c0.1-0.1,0.2-0.1,0.1-0.2s0,0,0,0l0,0H62c0,0-0.1,0-0.2,0c0,0-0.1,0-0.1,0s0,0,0,0c-0.2,0-0.4,0-0.5,0h-0.3c-0.1,0-0.1,0-0.1,0
			s0,0,0,0c-0.2,0-0.4,0-0.5,0c-0.3,0-0.5,0-0.8,0c-0.1,0-0.3,0-0.3,0"/>
		<path d="M32.5,23.6c-0.3,0.1-0.5,0-0.8,0.3c-0.4,0.5-0.7,1-1,1.5c-0.3,0.6-1,0.9-1.6,0.6c-0.6-0.2-0.8-0.7-0.4-1.2
			s0.8-0.8,1.1-1.1c0.1-0.1,0.2-0.2,0.3-0.3L30,23.3l-2,0.9c-0.2,0.1-0.4,0.2-0.5,0.3c-0.5,0.3-1.2,0.1-1.5-0.4c0,0,0-0.1,0-0.1
			c-0.2-0.5,0-1.1,0.5-1.3c0.1,0,0.1-0.1,0.2-0.1c0.6-0.2,1.2-0.3,1.8-0.4l0.4-0.1v-0.1c-1.2-0.8-1.7-2.4-0.9-3.7
			c0.3-0.4,0.5-0.8,0.9-1.2c0.5-0.5,0.9-1.2,1-1.9h0.1l0.6,1.3c0.4-0.5,0.7-1.1,1.1-1.6c0.5-0.5,0.8-1.3,0.8-2
			c0-0.3,0.1-0.6,0.2-0.9c0.2,1,1,1.5,1.6,2.3c0.6,0.7,0.9,1.5,1.1,2.3c0,0.2,0.1,0.4,0.2,0.7c0.2-0.6,0.2-1.2,0-1.8
			c0.7,1,1.6,1.7,1.8,3c0.1,1.4-0.5,2.7-1.6,3.4l1.5,0.2l1.2,0.2c0.5,0.1,0.8,0.4,0.8,0.7c-0.1,0.5-0.5,0.9-1,1
			c-0.3,0-0.6,0-0.8-0.1c-0.7-0.2-1.4-0.5-2.1-0.7c-0.1,0-0.2,0-0.3,0c0.4,0.2,0.8,0.5,1.3,0.7c0.2,0.2,0.4,0.4,0.6,0.6
			c0.1,0.3,0,0.7-0.3,0.8c-0.3,0.3-0.8,0.3-1.2,0.1c-0.3-0.2-0.5-0.4-0.7-0.7c-0.4-0.5-1-0.9-1.5-1.2"/>
	</g>
</g>
</svg>
