<?xml version="1.0" encoding="utf-8"?>
<!-- Generator: Adobe Illustrator 22.1.0, SVG Export Plug-In . SVG Version: 6.00 Build 0)  -->
<svg version="1.1" id="Layer_1" xmlns="http://www.w3.org/2000/svg" xmlns:xlink="http://www.w3.org/1999/xlink" x="0px" y="0px"
	 viewBox="0 0 185.9 202.6" style="enable-background:new 0 0 185.9 202.6;" xml:space="preserve">
<style type="text/css">
	.st0{enable-background:new    ;}
	.st1{fill:#231F20;}
	.st2{fill:none;}
	.st3{fill:#010101;}
</style>
<title>atplgy_logo_black_2</title>
<g id="Layer_2_1_">
	<g id="Layer_1-2">
		<g class="st0">
			<path class="st1" d="M22.9,49.5l-5.4-10.8c0-0.1-0.1-0.2,0-0.3l0.1-0.1c0.1-0.1,0.2-0.1,0.3-0.1l11.7,3.1
				c0.2,0.1,0.3,0.3,0.2,0.5l-0.4,0.5c-0.1,0.1-0.2,0.1-0.3,0.1l-2.9-0.8L22.5,46l1.3,2.6c0,0.1,0.1,0.2,0,0.3l-0.4,0.5
				C23.2,49.7,23,49.7,22.9,49.5z M25.1,41.2c-1.9-0.5-3.8-1-5.7-1.5l-0.1,0.1L22,45L25.1,41.2z"/>
		</g>
		<g class="st0">
			<path class="st1" d="M25.7,29.7c-0.1-0.1-0.1-0.3,0-0.4L26,29L37.7,31c0,0,0,0,0,0l-5.8-6.6c-0.1-0.1-0.1-0.3,0-0.4l0.4-0.4
				c0.1-0.1,0.3-0.1,0.4,0l7.3,8.3c0.1,0.1,0.1,0.3,0,0.4l-0.2,0.2L28,30.5l0,0l5.9,6.7c0.1,0.1,0.1,0.3,0,0.4L33.4,38
				c-0.1,0.1-0.3,0.1-0.4,0L25.7,29.7z"/>
		</g>
		<g class="st0">
			<path class="st1" d="M41.1,18.8l-2.4,1.5c-0.2,0.1-0.3,0-0.4-0.1L38,19.9c-0.1-0.1-0.1-0.3,0.1-0.4l5.9-3.7
				c0.2-0.1,0.3,0,0.4,0.1l0.3,0.4c0.1,0.1,0.1,0.3-0.1,0.4l-2.4,1.5l5.4,8.5c0.1,0.1,0,0.3-0.1,0.4l-0.5,0.3
				c-0.1,0.1-0.3,0-0.4-0.1L41.1,18.8z"/>
		</g>
		<g class="st0">
			<path class="st1" d="M50,12.7c-0.1-0.2,0-0.3,0.2-0.4l0.6-0.3c0.2-0.1,0.3,0,0.4,0.2l1.9,4.4l6.1-2.7l-1.9-4.4
				c-0.1-0.2,0-0.3,0.2-0.4L58,8.9c0.1-0.1,0.3,0,0.4,0.2l4.4,9.9c0.1,0.2,0,0.3-0.2,0.4L62,19.6c-0.2,0.1-0.3,0-0.4-0.2l-2-4.5
				l-6.1,2.7l2,4.5c0.1,0.2,0,0.3-0.2,0.4l-0.6,0.3c-0.2,0.1-0.3,0-0.4-0.2L50,12.7z"/>
		</g>
		<g class="st0">
			<path class="st1" d="M66.1,6.5c0-0.2,0.1-0.3,0.2-0.4l4.1-1c1.9-0.5,3.8,0.6,4.3,2.5c0.4,1.5-0.3,2.9-1.6,3.8l3.2,3.5
				c0.2,0.2,0.1,0.5-0.2,0.5l-0.8,0.2c-0.1,0-0.2,0-0.3-0.1l-3.2-3.7l-3,0.8l1,4.1c0,0.2-0.1,0.3-0.2,0.4L69,17.3
				c-0.2,0-0.3-0.1-0.4-0.2L66.1,6.5z M71.7,10.9c1.2-0.3,2-1.6,1.7-2.9c-0.3-1.2-1.6-2-2.8-1.7l-3.1,0.8l1.1,4.6L71.7,10.9z"/>
		</g>
		<g class="st0">
			<path class="st1" d="M86.3,2.5c3.3-0.2,6.1,2.2,6.3,5.5c0.2,3.3-2.2,6-5.5,6.3c-3.3,0.2-6-2.2-6.3-5.5C80.6,5.5,83,2.7,86.3,2.5z
				 M87,13.1c2.6-0.2,4.6-2.5,4.4-5.1c-0.2-2.6-2.5-4.6-5.1-4.4c-2.6,0.2-4.6,2.5-4.4,5.1C82.1,11.3,84.4,13.3,87,13.1z"/>
		</g>
		<g class="st0">
			<path class="st1" d="M99.4,2.9c0-0.2,0.2-0.3,0.3-0.3l3.6,0.4c2,0.2,3.5,2,3.3,4c-0.2,2-2,3.5-4,3.3L100,10l-0.4,3.8
				c0,0.2-0.2,0.3-0.3,0.3L98.6,14c-0.2,0-0.3-0.2-0.3-0.3L99.4,2.9z M102.7,9c1.3,0.1,2.6-0.8,2.7-2.3c0.1-1.3-0.9-2.5-2.3-2.6
				l-2.6-0.3l-0.5,4.8L102.7,9z"/>
		</g>
		<g class="st0">
			<path class="st1" d="M109,14.8l7.5-9.5c0.1-0.1,0.2-0.1,0.3-0.1l0.2,0c0.1,0,0.2,0.1,0.2,0.2l2.1,11.9c0,0.2-0.1,0.4-0.4,0.3
				l-0.6-0.2c-0.1,0-0.2-0.2-0.2-0.2l-0.5-2.9l-5.6-1.4l-1.8,2.3c-0.1,0.1-0.2,0.1-0.3,0.1l-0.6-0.2C108.9,15.2,108.8,15,109,14.8z
				 M117.4,13.3c-0.3-1.9-0.7-3.9-1-5.8l-0.1,0l-3.6,4.6L117.4,13.3z"/>
		</g>
		<g class="st0">
			<path class="st1" d="M126.7,8.6c0-0.2,0.2-0.3,0.4-0.2l0.6,0.3c0.1,0.1,0.2,0.2,0.2,0.3l-1.4,8.7l0.1,0l6.1-6.8
				c0.1-0.1,0.2-0.1,0.3,0l0.3,0.1c0.1,0.1,0.2,0.2,0.2,0.3l-1.1,9.1l0.1,0l5.5-6.8c0.1-0.1,0.2-0.1,0.4-0.1l0.6,0.3
				c0.2,0.1,0.3,0.3,0.1,0.5l-7.4,8.8c-0.1,0.1-0.2,0.1-0.4,0.1l-0.2-0.1c-0.1,0-0.2-0.2-0.2-0.3l1.1-9.2l-0.1,0l-6.2,6.9
				c-0.1,0.1-0.2,0.1-0.3,0l-0.2-0.1c-0.1-0.1-0.2-0.2-0.2-0.3L126.7,8.6z"/>
		</g>
		<g class="st0">
			<path class="st1" d="M145,17.8c0.1-0.1,0.3-0.2,0.4-0.1l0.5,0.4c0.1,0.1,0.2,0.3,0.1,0.4l-5.6,8.3l3.9,2.6
				c0.2,0.1,0.2,0.3,0.1,0.4l-0.3,0.4c-0.1,0.1-0.3,0.2-0.4,0.1l-4.7-3.2c-0.1-0.1-0.2-0.3-0.1-0.4L145,17.8z"/>
		</g>
		<g class="st0">
			<path class="st1" d="M159.1,28.2c2.4,2.2,2.5,5.9,0.3,8.3s-5.9,2.5-8.3,0.3c-2.4-2.2-2.5-5.9-0.3-8.3
				C153,26.1,156.7,26,159.1,28.2z M151.9,36c1.9,1.8,4.9,1.7,6.7-0.2c1.8-1.9,1.7-5-0.2-6.7c-1.9-1.8-4.9-1.6-6.7,0.3
				C149.9,31.2,150,34.2,151.9,36z"/>
		</g>
		<g class="st0">
			<path class="st1" d="M171.3,41.8c1,1.3,1.3,2.6,1.2,4.1c0,0.2-0.2,0.3-0.4,0.3c-0.2,0-0.4-0.1-0.6-0.1c-0.2,0-0.3-0.1-0.2-0.4
				c0.1-1.1-0.2-2.4-0.8-3.3c-1.6-2.1-4.5-2.3-6.5-0.8c-2,1.5-2.6,4.4-1.1,6.5c1.1,1.4,2.3,1.9,2.3,1.9l1.8-1.4l-1.1-1.5
				c-0.1-0.1-0.1-0.3,0-0.4l0.5-0.4c0.1-0.1,0.3-0.1,0.4,0.1l1.7,2.3c0.1,0.1,0.1,0.3-0.1,0.4l-3,2.3c-0.1,0-0.2,0.1-0.3,0.1
				c0,0-1.9-0.7-3.3-2.6c-2-2.6-1.5-6.3,1.2-8.3C165.7,38.7,169.4,39.2,171.3,41.8z"/>
		</g>
		<g class="st0">
			<path class="st1" d="M173.4,56.5l3-6c0.1-0.2,0.4-0.2,0.5,0l0.4,0.7c0.1,0.1,0,0.2,0,0.3l-2.5,5.1l5.6,0.8c0.1,0,0.2,0.1,0.3,0.2
				l0.4,0.7c0.1,0.2,0,0.5-0.3,0.5l-6.7-1l-4.6,2.4c-0.1,0.1-0.3,0-0.4-0.1l-0.3-0.6c-0.1-0.2,0-0.3,0.1-0.4L173.4,56.5z"/>
		</g>
		<g class="st0">
			<path class="st1" d="M15.2,137.1c0.1-0.2,0.4-0.2,0.5,0l0.3,0.6c0.1,0.1,0,0.3,0,0.3l-6,8.1l0,0.1l10-1c0.1,0,0.2,0,0.3,0.2
				l0.3,0.6c0.1,0.2,0,0.4-0.2,0.5l-12.1,1.1c-0.1,0-0.2,0-0.3-0.2L8,147.1c-0.1-0.1,0-0.2,0-0.3L15.2,137.1z"/>
		</g>
		<g class="st0">
			<path class="st1" d="M23.3,150.1c0.1-0.1,0.3-0.1,0.4,0.1l4,5.1c0.1,0.1,0.1,0.3-0.1,0.4l-0.4,0.3c-0.1,0.1-0.3,0.1-0.4-0.1
				l-3.4-4.3l-3.1,2.5l2.9,3.7c0.1,0.1,0.1,0.3-0.1,0.4l-0.4,0.3c-0.1,0.1-0.3,0.1-0.4-0.1l-2.9-3.7l-3.3,2.6l3.4,4.3
				c0.1,0.1,0.1,0.3-0.1,0.4l-0.4,0.3c-0.1,0.1-0.3,0.1-0.4-0.1l-4-5.1c-0.1-0.1-0.1-0.3,0.1-0.4L23.3,150.1z"/>
		</g>
		<g class="st0">
			<path class="st1" d="M32.2,161.5l-2.1-2c-0.1-0.1-0.1-0.3,0-0.4l0.3-0.3c0.1-0.1,0.3-0.1,0.4,0l5,4.8c0.1,0.1,0.1,0.3,0,0.4
				l-0.3,0.3c-0.1,0.1-0.3,0.1-0.4,0l-2.1-2l-7,7.3c-0.1,0.1-0.3,0.1-0.4,0l-0.4-0.4c-0.1-0.1-0.1-0.3,0-0.4L32.2,161.5z"/>
		</g>
		<g class="st0">
			<path class="st1" d="M39.7,167c0.1-0.1,0.3-0.2,0.4-0.1l5.2,3.8c0.1,0.1,0.2,0.3,0.1,0.4l-0.3,0.4c-0.1,0.1-0.3,0.2-0.4,0.1
				l-4.5-3.2l-2.4,3.2l3.8,2.8c0.1,0.1,0.2,0.3,0.1,0.4l-0.3,0.4c-0.1,0.1-0.3,0.2-0.4,0.1l-3.8-2.8l-2.5,3.4l4.5,3.2
				c0.1,0.1,0.2,0.3,0.1,0.4L39,180c-0.1,0.1-0.3,0.2-0.4,0.1l-5.2-3.8c-0.1-0.1-0.2-0.3-0.1-0.4L39.7,167z"/>
		</g>
		<g class="st0">
			<path class="st1" d="M50.2,174.1c0.1-0.1,0.3-0.2,0.4-0.1l3.8,2c1.8,0.9,2.5,3,1.6,4.8c-0.7,1.3-2.2,2-3.7,1.9l0.1,4.7
				c0,0.2-0.2,0.4-0.5,0.3l-0.7-0.4c-0.1-0.1-0.2-0.2-0.2-0.3l0.1-4.9l-2.8-1.4l-1.9,3.7c-0.1,0.1-0.3,0.2-0.4,0.1l-0.6-0.3
				c-0.2-0.1-0.2-0.3-0.1-0.4L50.2,174.1z M51.6,181.2c1.1,0.6,2.6,0.2,3.2-1c0.6-1.1,0.1-2.6-1-3.1l-2.8-1.5l-2.2,4.2L51.6,181.2z"
				/>
		</g>
		<g class="st0">
			<path class="st1" d="M62.7,180c0.1-0.2,0.2-0.2,0.4-0.2l0.6,0.2c0.2,0.1,0.2,0.2,0.2,0.4l-3.7,10.2c-0.1,0.2-0.2,0.2-0.4,0.2
				l-0.6-0.2c-0.2-0.1-0.2-0.2-0.2-0.4L62.7,180z"/>
		</g>
		<g class="st0">
			<path class="st1" d="M70,182.2c0-0.2,0.2-0.3,0.4-0.2l0.4,0.1l5.3,10.6c0,0,0,0,0,0l1.8-8.5c0-0.2,0.2-0.3,0.4-0.2l0.6,0.1
				c0.2,0,0.3,0.2,0.2,0.4l-2.3,10.8c0,0.2-0.2,0.3-0.4,0.2l-0.3-0.1l-5.4-10.8l0,0l-1.9,8.7c0,0.2-0.2,0.3-0.4,0.2l-0.6-0.1
				c-0.2,0-0.3-0.2-0.2-0.4L70,182.2z"/>
		</g>
		<g class="st0">
			<path class="st1" d="M83.3,195.7l5.4-10.8c0.1-0.1,0.1-0.2,0.3-0.2l0.2,0c0.1,0,0.2,0.1,0.3,0.2l4.5,11.2
				c0.1,0.2-0.1,0.4-0.3,0.4l-0.7,0c-0.1,0-0.2-0.1-0.3-0.2l-1.1-2.8l-5.8-0.2l-1.3,2.7c0,0.1-0.1,0.2-0.3,0.2l-0.7,0
				C83.3,196.2,83.2,196,83.3,195.7z M91.2,192.6c-0.7-1.8-1.4-3.7-2.2-5.5l-0.1,0l-2.6,5.3L91.2,192.6z"/>
		</g>
		<g class="st0">
			<path class="st1" d="M99.1,185.2c0-0.2,0.1-0.3,0.3-0.3l4.2-0.5c2-0.2,3.7,1.1,4,3.1c0.2,1.5-0.7,2.9-2,3.6l2.7,3.9
				c0.1,0.2,0.1,0.5-0.2,0.5l-0.8,0.1c-0.1,0-0.2-0.1-0.3-0.1l-2.7-4.1l-3.1,0.4l0.5,4.2c0,0.2-0.1,0.3-0.3,0.3l-0.6,0.1
				c-0.2,0-0.3-0.1-0.3-0.3L99.1,185.2z M104.2,190.2c1.3-0.1,2.2-1.3,2.1-2.6c-0.1-1.2-1.4-2.2-2.6-2l-3.2,0.4l0.5,4.7L104.2,190.2
				z"/>
		</g>
		<g class="st0">
			<path class="st1" d="M116.4,187.9l-5.3-4.2c-0.2-0.2-0.1-0.5,0.1-0.5l0.7-0.2c0.1,0,0.2,0,0.3,0.1l4.4,3.5l2-5.3
				c0-0.1,0.1-0.2,0.2-0.2l0.7-0.2c0.3-0.1,0.4,0.1,0.4,0.4l-2.4,6.3l1.4,5c0,0.2-0.1,0.3-0.2,0.4l-0.6,0.2c-0.2,0-0.3-0.1-0.4-0.2
				L116.4,187.9z"/>
		</g>
		<g class="st0">
			<path class="st1" d="M134.9,173.7c1.4-0.8,2.8-0.9,4.2-0.6c0.2,0.1,0.3,0.2,0.2,0.4l-0.2,0.6c0,0.2-0.2,0.3-0.4,0.2
				c-1.1-0.2-2.4-0.1-3.3,0.4c-2.3,1.3-2.9,4.1-1.7,6.3c1.2,2.2,4,3.2,6.3,1.9c1.2-0.7,1.7-1.6,2.1-2.6c0.1-0.2,0.2-0.2,0.3-0.2
				l0.6,0.1c0.2,0,0.2,0.2,0.2,0.4c-0.5,1.5-1.4,2.6-2.7,3.3c-2.9,1.6-6.4,0.6-8-2.3C131,178.9,132,175.3,134.9,173.7z"/>
		</g>
		<g class="st0">
			<path class="st1" d="M148.5,178.5l-3-11.7c0-0.1,0-0.2,0.1-0.3l0.1-0.1c0.1-0.1,0.2-0.1,0.3,0l10.7,5.5c0.2,0.1,0.2,0.4,0,0.5
				l-0.5,0.4c-0.1,0.1-0.3,0.1-0.3,0l-2.6-1.4l-4.5,3.6l0.7,2.9c0,0.1,0,0.2-0.1,0.3l-0.5,0.4C148.8,178.8,148.6,178.7,148.5,178.5z
				 M152.4,171c-1.7-0.9-3.5-1.8-5.2-2.7l-0.1,0.1l1.5,5.7L152.4,171z"/>
		</g>
		<g class="st0">
			<path class="st1" d="M153.5,160.1c-0.1-0.1-0.1-0.3,0-0.4l2.9-3.1c1.3-1.5,3.6-1.6,5-0.3c1.1,1,1.4,2.6,0.8,4.1l4.6,1.2
				c0.2,0.1,0.4,0.3,0.2,0.5l-0.6,0.6c-0.1,0.1-0.2,0.1-0.3,0.1l-4.7-1.3l-2.1,2.3l3.1,2.8c0.1,0.1,0.1,0.3,0,0.4l-0.4,0.5
				c-0.1,0.1-0.3,0.1-0.4,0L153.5,160.1z M160.7,160.6c0.9-0.9,0.8-2.5-0.2-3.4c-0.9-0.8-2.5-0.8-3.3,0.2l-2.2,2.4l3.5,3.2
				L160.7,160.6z"/>
		</g>
		<g class="st0">
			<path class="st1" d="M162.5,149.7c-0.1-0.1-0.2-0.3-0.1-0.4l3.6-5.4c0.1-0.1,0.3-0.2,0.4-0.1l0.4,0.3c0.1,0.1,0.2,0.3,0.1,0.4
				l-3,4.6l3.3,2.2l2.6-3.9c0.1-0.1,0.3-0.2,0.4-0.1l0.4,0.3c0.1,0.1,0.2,0.3,0.1,0.4l-2.6,3.9l3.5,2.3l3-4.6
				c0.1-0.2,0.3-0.2,0.4-0.1l0.4,0.3c0.1,0.1,0.2,0.3,0.1,0.4l-3.6,5.4c-0.1,0.1-0.3,0.2-0.4,0.1L162.5,149.7z"/>
		</g>
		<path class="st2" d="M22.4,99.4c0-39.3,31.8-71.1,71.1-71.1"/>
		<path class="st3" d="M30.5,87c0.2,0.5,2.3,1.1,2.3,1.6c0,0.1,0,0.2,0.1,0.3c0.4,0.6,0.9,1.1,1.3,1.6c0,0,0.1,0.1,0.1,0.1
			c0,0.4,0.1,0.9,0.2,1.3c0,0.2,0.1,0.4,0.2,0.6c0.4,0.5,0.7,1.1,1,1.7c0,0.1,0,0.1,0,0.2c0,0.5-0.1,1.1-0.3,1.5
			c-0.1,0.6-0.2,1.1-0.2,1.7c0,0.4-0.1,0.9-0.1,1.3c0,0,0,0.1-0.1,0.1c-0.3,0.4-0.2,1,0.2,1.3c0.4-0.4,1.3-0.2,1.5-1
			c0.1,0,0.2,0,0.3,0l1.5-0.6c0.5-0.2,0.9-0.5,1.3-0.8c0.2-0.2,0.4-0.4,0.7-0.5c0.3-0.2,0.6-0.4,0.9-0.6s0.5-0.4,0.7-0.6
			c0.2-0.1,0.4-0.2,0.5-0.3c0.5-0.2,0.9-0.4,1.3-0.7c0.5-0.4,1-0.8,1.5-1.1c0.4-0.3,0.8-0.4,1.3-0.4c0.2,0,0.4-0.1,0.6-0.2
			c0.1,0,0.1-0.1,0.2-0.1c0.7-0.1,1.4,0,2.1,0.4c0.2,0.2,0.5,0.2,0.8,0.2c0.5-0.2,1-0.4,1.5-0.6c0.6-0.3,1.3-0.5,1.9-0.7
			c0.6-0.3,1.3-0.5,1.9-0.7c0.8-0.2,1.5-0.6,2.2-0.9c0.6-0.3,1.3-0.6,1.9-0.8c0.6-0.2,0.8-0.2,1.1,0.4c0.1,0.2,0.2,0.5,0.3,0.7
			c0.3,0.6,0.7,1.3,0.9,2c0.4,1.1,1,2,1.4,3L64,98l0.4,1c0.3,0.7,0.7,1.5,1.1,2.2c0.1,0.3,0.4,0.4,0.6,0.3c0.6-0.3,1.1-0.6,1.7-0.8
			c0.4-0.2,0.8-0.4,1.3-0.3l0.9,0.2v0.6c-0.1,0-0.1,0-0.1,0.1c-0.1,0.3-0.1,0.6-0.2,0.9c0,0.2-0.1,0.5-0.2,0.7
			c-0.2,0.6-0.4,1.3-0.6,1.9c-0.1,0.3-0.1,0.5-0.2,0.8s-0.2,0.6-0.3,0.9c0,0.1,0,0.2,0,0.3l-0.9,0.4l-1,0.4l-1.2,0.5l-1.1,0.4
			l-0.9,0.3l-1,0.4l-0.9,0.3c-0.3,0.1-0.7,0.2-1,0.3l-1.6,0.7l-1.4,0.5c-0.3,0.1-0.7,0.2-1,0.3c-0.2,0.1-0.5,0-0.5,0.4
			c0.4,0.1,0.7,0.1,1,0.2c0.2,0.1,0.4,0.1,0.6,0.3c0.6,0.3,0.9,1,0.7,1.6l0,0c0.1,0.7-0.1,1.5-0.5,2c-0.2,0.2-0.3,0.4-0.3,0.7
			c-0.1,0.3-0.2,0.7-0.3,1c-0.1,0.1-0.1,0.3-0.2,0.4c-0.1,0.5-0.4,1-0.8,1.3c-0.3,0.2-0.7,0.4-1,0.6c0.1,0.1,0.2,0.3,0.3,0.4
			c0.5,0.2,0.8,0.7,0.7,1.2c0.1,0.8,0.1,1.5-0.1,2.3c-0.1,0.5-0.4,0.9-0.7,1.3c-0.3,0.3-0.6,0.5-1,0.7c-0.7,0.4-1.5,0.7-2.2,1
			l-1,0.1h-0.9c-0.1-0.1-1,0-1.1,0c-0.3-0.1-0.6-0.1-0.9-0.2l-1.5-0.2l-2-0.2h-0.1c-0.5-0.1-1-0.2-1.5-0.3c-1.4-0.1-2.7,0-4.1,0.1
			c-0.3,0-0.6,0-0.8,0c-1.2-0.1-2.5,0-3.7,0.2c-0.4,0.1-0.8,0.1-1.2,0.1c-1.7,0.1-3.4,0-5.1-0.3c-0.6-0.1-1.2-0.2-1.8-0.3l-1.2-0.2
			h-0.1c-0.3-0.1-0.7-0.2-1-0.3c-0.7-0.1-1.3-0.1-2-0.2c0,0-0.1,0-0.1-0.1l-1.1-0.5c-0.4-0.1-0.7-0.2-1.1-0.3
			c-0.4-0.2-0.7-0.3-1.1-0.4c-0.5-0.1-0.6-0.1-0.5-0.6c0-0.3-0.1-0.6-0.3-0.8c-0.3-0.3-0.4-0.6-0.4-1c0-0.6,0.1-1.2,0.1-1.8
			c0-0.2,0.1-0.5,0.1-0.7c0-0.1,0.1-0.3,0.2-0.4c-0.4,0.2-0.9,0.3-1.3,0.4c-0.9,0.2-1.9,0.1-2.7-0.3c-0.5-0.3-1-0.6-1.5-0.8
			c-0.4-0.1-0.7-0.2-1-0.5c-0.1,0-0.1,0-0.2,0l-0.3-0.1l0.3-0.1c-0.2-0.6-0.5-1.1-0.7-1.7c-0.1-0.2,0-0.4-0.1-0.5s-0.2-0.6-0.3-0.9
			c0-0.2,0-0.3-0.1-0.5c-0.2-0.5-0.4-1-0.5-1.6c0-0.2-0.2-0.3-0.3-0.4c-0.4-0.1-0.7-0.1-1.1-0.1c-0.2,0-0.3-0.1-0.5-0.1
			c-0.2-0.1-0.4-0.2-0.6-0.2c-0.3,0-0.5-0.2-0.6-0.5c0,0,0-0.1,0-0.1v-1.1c0-0.6-0.1-1.2-0.3-1.8c-0.1-0.3-0.2-0.6-0.2-0.9
			c0-0.6,0-1.1-0.1-1.7c0-0.1,0-0.2,0-0.3c-0.2-0.5-0.3-1.1-0.3-1.7c0-0.2-0.1-0.5-0.3-0.6v-1c0.1-0.3,0.1-0.5,0.2-0.7
			c0.2-0.6,0.7-1.2,1.2-1.6c0.2-0.1,0.3-0.3,0.4-0.5c0.1-0.2,0.2-0.3,0.2-0.5c0-0.1,0.1-0.2,0.1-0.2C7.9,98.1,8,98,8.1,97.9
			c0.3-0.2,0.7-0.3,1-0.4c0.2-0.1,0.5-0.1,0.7-0.1C9.9,96.9,10,96.5,10,96c0-0.7,0.2-1.4,0.4-2.1c0.2-0.5,0.4-1,0.6-1.4
			c0.4-0.7,0.8-1.3,1.1-2c0.1-0.2,0.1-0.3,0.1-0.5c0.1-0.4,0.2-0.9,0.3-1.3c0.1-0.3,0.3-0.6,0.4-0.8c0.7,0,1.3,0.1,2,0.2
			c0.8,0.1,1.5,0.2,2.3,0.1c0.2,0,0.5,0,0.7-0.1c0.2,0,0.3,0.1,0.4,0.2c0,0.1,0.2,0.2,0.3,0.2c0.1,0,0.2-0.1,0.2-0.2
			c0.1-0.3,1.3-0.6,1.4-0.9c0.1-0.6,1.1-0.1,1.5-0.6c0,0,1.1-1.2,1.1-1.3 M39.3,107c-0.3-0.9-0.7-1.9-1.2-2.8
			c-0.3,0.2-0.6,0.4-0.9,0.6c-0.1,0.1-0.2,0.2-0.2,0.4c0.1,0.6,0,1.2-0.2,1.8c-0.1,0.4-0.3,0.7-0.4,1.1l0.3,0.3l0.6-0.4l-0.2-0.5
			l0.5,0.2c0-0.1-0.1-0.1-0.1-0.2c0-0.1,0-0.1,0-0.2c0.1,0,0.1,0,0.2,0c0.3,0.1,0.6-0.1,0.7-0.4c0-0.1,0-0.2,0.1-0.3l0.2,0.3
			C38.8,107,39.3,107,39.3,107z M23.7,62.5c1.5,0.6,2.5,2.1,2.4,3.7l0.5,0.2c0.8-0.3,1.7-0.5,2.6-0.7c1.3-0.2,2.6,0,3.8,0.4
			c1,0.3,2.1,0.6,3,1.2c0.5,0.2,0.9,0.6,1.1,1.1c0.1,0.1,0.1,0.1,0.2,0.1c1.2,0.1,2.4,0.8,3,1.8c0.6,1,1,2,1.1,3.1
			c0,0.7,0.5,1.3,1.2,1.5l-0.7-0.1v0.1l0.7,0.3c-0.6,0.1-1.2,0-1.7-0.4l0.2,0.2c0.1,0.1,0.2,0.2,0.2,0.2L41,75.1l0,0l0.3,0.2
			l-0.1,0.1l-1-0.8l0.1,0.3l0,0l-0.1-0.3L40,74.7l0.2,0.8l-0.3-0.1c-0.2,0.6-0.3,1.2-0.5,1.8c-0.2,0.6-0.5,1.1-0.8,1.6h0.5
			c-0.1,0.1-0.2,0.2-0.3,0.2c-0.2,0.1-0.4,0.3-0.3,0.6l0,0c0.1,0.5,0.2,1,0.5,1.4c0.5,0.7,0.3,1.1-0.5,1.2c-0.3,0-0.6,0.3-0.6,0.6
			l0,0c0,0.6,0,0.6-0.5,0.8c0.3,0.5,0.2,0.7-0.3,1c-0.1,0.1-0.3,0.2-0.3,0.4c0,0.8-0.7,1.5-1.5,1.5c-0.6,0-1.3-0.1-1.8-0.4
			c-0.3-0.1-0.7-0.3-1.1-0.5c-0.3-0.2-0.8-0.1-1,0.2c-0.5,0.6,0,1.3-0.5,1.9c-0.3,0.3-0.3,0.7-0.1,1c0.3,0.7,0.7,1.3,1,2
			c0.1,0.3,0.3,0.6,0.4,0.9c0.1,0.2,0.1,0.5-0.1,0.6c0,0,0,0,0,0c-0.1,0.1-0.2,0.1-0.3,0c-3.9-0.5-6.8-1-10.7-1.5
			c-0.2,0-0.4-0.2-0.5-0.4c0-0.1,0.1-0.3,0.1-0.3c1.1-1.6-0.9-1.8,0.6-3c1-0.8,2-1.8,3-2.6c0.5-0.6,1.1-1.2,1.4-1.5
			c0.1-0.1,0.1-0.2,0.1-0.3l-0.1-0.1c-0.1-0.1-0.1-0.1-0.2-0.1c-1.2-0.2-1.1-1.5-1.7-2.5c-0.6-1-1.1-2.1-1.3-3.3
			c-0.3-1.4-0.1-2.9,0.6-4.2c0.3-0.5,0.4-1.1,0.7-1.7l-0.9,0.4c-0.3,0.2-0.5,0.5-0.6,0.9c-0.2,0.9-0.3,1.8-0.5,2.7
			c-0.1,0.4-0.3,0.8-0.5,1.1c-0.2,0.2-0.4,0.4-0.6,0.6c-0.9,0.8-2.1,1-3.3,0.7L15.9,77c0.8-0.6,1.3-1.5,1.3-2.6l-0.5,0.2
			c0.3-0.6,0.2-1.3-0.2-1.9c-0.1-0.3-0.4-0.5-0.5-0.8s-0.4-0.8-0.7-1.2c-0.5-0.8-0.8-1.8-0.9-2.7c0-0.1,0-0.1,0-0.2l0.2-1.3
			c0.1-0.3,0.2-0.6,0.4-0.9c1.1-2.3,3.5-3.7,6-3.7h0.3l1.5,0.2C23.1,62.3,23.4,62.4,23.7,62.5L23.7,62.5z"/>
		<path class="st1" d="M175.6,120.4c-0.8-0.3-2.2-3.4-2-4.3c0-0.5,0-1,0-1.5v-1.3c-0.3-0.6-0.4-1.3-0.6-2c0-0.2,0-0.4-0.1-0.6
			c-0.3-0.9-0.7-1.7-1.1-2.6c-0.8-1.6-1.8-3.1-2.8-4.6c-0.5-0.7-1.2-1.3-1.7-2s-0.6-1.5-1-2.2c-0.9-1.2-1-2.9-2.3-3.8
			c-0.1,0-0.1-0.1-0.1-0.2c0.2-0.8-0.4-1.2-0.7-1.7s-0.9-1.3-1.4-2c-0.2-0.5-0.5-1-0.8-1.4c-1.4-1.3-2.8-2.6-4.1-3.9
			c-0.2-0.1-0.4-0.2-0.5-0.2l-0.9-0.4c1.1-0.3,0.9-1,0.7-1.8c-0.4,0.1-0.8,0.1-1.1,0c-0.2-0.1-0.4-0.2-0.5-0.4
			c0.2-0.6-0.1-1.3-0.7-1.6c-0.7-0.6-1.4-1.2-2.1-1.8c-0.1-0.2-0.2-0.4-0.3-0.6l0.1-0.1l-2.2-2.9l0.3-0.7l-1.5-1.1l0.6-0.5
			c-0.7-0.5-1.4-0.8-1.9-1.3c-0.5-0.3-0.9-0.7-1.2-1.2c-0.4-1.6-2-1.7-2.7-2.9c-0.3-0.5-0.8-1-1.4-1.2c-1.4-0.9-2.6-4.1-3.4-5.6
			l-0.8-0.1c-0.4,0.7-0.6,1.4-0.8,2.1c-0.1,1.2-0.4,2.5-0.9,3.6c-0.3,0.8-1.7,1.4-2.2,1.7c-0.3,0.1-0.5,0.3-0.6,0.5
			c-0.7,1.2-1.4,2.4-1.9,3.8c-0.6,1.6-1.6,2.9-3,3.8c-0.8,0.6-1.6,1.3-2.4,1.8c-0.4,0.2-0.8,0.4-1.2,0.6l-0.1,0.4
			c0.2,0.4,0.5,0.8,0.8,1.2c0.9,1,1.9,1.9,3,2.8c0.7,0.6,1.7,0.8,2.6,0.5c1-0.3,1.9-1.2,3.2-0.3c-0.4,1-0.8,2-1.1,3.1
			c-0.1,0.5-0.2,1.1-0.1,1.6c0.1,0.4,0.3,0.9,0.3,1.3c-0.1,1.4,0.6,2.4,1,3.6s0.8,2.3,0.2,3.3c0.2,0.3,0.3,0.6,0.4,0.9
			c0,0.8-0.1,1.6-0.1,2.4c0.1,1-0.2,2.2,1.2,2.5c0.1,0.1,0.2,0.2,0.2,0.3c0.8,0.8,0.4,1.8,0.2,2.6c-0.4,1.2-0.8,2.3-1.3,3.4
			c-0.4,1.1-1.5,1.7-1.6,3c0,0.1,0,0.1-0.1,0.2l-1.3,2c-0.6,0.7-0.9,1.5-0.8,2.4c0,0.3-0.1,0.6-0.4,0.8c-1.1,0.3-1.3,1.6-2.1,2.2
			s-1.7,1.7-2.5,1.7c-1.2,0-2.3,0.4-3.3,1.1c0.1,0.4,0.2,0.8,0.2,1.2c-0.2,0.9,0.2,1.2,0.9,1.3c0.5,0.1,1.1,0.3,1.6,0.4h0.4
			c0.1-0.1,0.1-0.1,0.2-0.2c1.1-0.1,2.3,0.1,3.2-0.9c0.3,0,0.6,0,0.8,0.2c0.5,0,0-0.9,0.4-1c0.6-0.2,1.3-0.4,1.9-0.7
			c0.2-0.1,0.3-0.3,0.5-0.5c0.9-0.6,1.4-1.8,2.7-1.4c0.1,0,0.3-0.1,0.4-0.2c0.2-0.9,1-1.6,1.9-1.8c0.5-0.2,0.8-0.8,0.6-1.4
			c0,0,0-0.1,0-0.1c-0.2-0.6,0.1-1.3,0.6-1.7c0.7-0.7,1.5-1.3,2.2-2c0-0.2,0-0.4,0-0.5c0-0.3,0-0.7,0.2-1c0.5-0.4,1.2-0.8,1.8-1
			c0.4-0.2,0.8,0,1,0.4c0,0,0,0,0,0c0.1,0.1,0.1,0.2,0.1,0.4c0.1,0.7,3.6,2.3,3.9,3c0.4,0.9,1,1.7,1.9,2.2c0.4,0.3-0.3,0.9,0.3,1.3
			c0.3,0.4-0.6,0.9-0.7,1.4c-0.3,0.3-0.6,0.4-1,0.4c-1.2,0,1.7-0.1,0.5,0c-0.9,0.1-1.7,0.4-2.5,0.7c0,0.2-0.1,0.4-0.1,0.8
			c-0.3,1.9-0.2,2.2,1.5,2.3c1.5,0.2-1,0,0.5,0.1c1,0,1.3-0.1,1.8,0.5c0.6,0.7,1.5,1.2,2.4,1.2c1,0.1,2,0.1,3,0c0.4,0,1,0.2,1,0.2
			c0.3-1.2,0.8,0,1.1-0.1s0.4,0.2,0.6,0.2c1.4-0.3,2.9-0.6,4.3-0.9c0.1,0.4,0.4,0.6,0.7,0.8c0.6-0.4,1.2-0.8,1.7-1.3
			c0.4-0.1,0.8-0.2,1.3-0.2c0.3,0.1,0.5,0.2,0.7,0.4c0.1,0.1,0.2,0.2,0.3,0.3h4.2c0.2,0.2,0.4,0.4,0.7,0.5c0.5,0,1.1,0,1.6,0"/>
		<path class="st1" d="M168.3,116.9c1.5,0.3,3.1,0.6,4.6,0.7c0.9,0,0.1,0,0.5,0c0.4-0.1,0.8-0.2,1.2-0.3c0.6-0.1,1.2-0.1,1.8,0
			c0.9,0.1,1.7,0.4,2.5,0.9c0.4,0.3,0.9,0.5,1.5,0.7c0.4,0.1,0.8,0.2,1.1,0.4l1.3,0.6c0.3,0.1,0.6,0.3,0.9,0.5
			c0.1,0.1,0.1,0.1,0,0.1s-0.9,0-1,0s-0.1,0.1,0,0.2s0.5,0.2,0.7,0.4c0.3,0.1,0.6,0.3,0.8,0.5c0.8,0.8,1.3,1.8,1.6,2.8
			c0.1,0.2,0.1,0.4,0.2,0.7c0,0.2,0,0.4-0.1,0.6c-0.2,0.4-0.3,0.9-0.2,1.4c0.1,0.7,0,1.4-0.3,2.1c-0.1,0.1-0.2,0.2-0.3,0.3
			c-0.1,0-0.2-0.1-0.3-0.2c0-0.1,0-0.4-0.1-0.6c-0.1-0.2-0.1-0.3-0.2-0.5c-0.1,0-0.1,0-0.1,0.1c-0.1,0.2-0.1,0.3-0.1,0.5
			c-0.2,0.8-0.6,1.6-1.2,2.2c-0.2,0.2-0.5,0.4-0.7,0.6c-0.4,0.2-0.8,0.4-1.2,0.6c-0.4,0.1-1,0.1-1.4,0.3s-1.2,0.6-1.6,0.7
			c-0.2,0.1-0.5,0.2-0.7,0.3c-0.2,0-0.4,0-0.6,0c-0.1-0.1-0.1-0.3-0.1-0.4s0.4-0.4,0.4-0.4s-0.3,0-0.4,0c-0.6,0.2-1.3,0.2-1.9,0
			c-0.1,0-0.1,0-0.4,0s-1.1,0.4-1.4,0.5s-0.4,0.1-0.5,0s0-0.4,0-0.5s0.2-0.3,0.2-0.4s0.1-0.1-0.1-0.1s-0.4,0.1-0.6,0.1
			s-0.6,0.3-0.9,0.1c-0.3-0.2-0.7-0.3-1.1-0.3c-0.2,0-0.4,0-0.6,0c-0.1,0-0.3-0.1-0.4-0.2c-0.1-0.1,0.1-0.2,0.1-0.3s0.3-0.4,0.2-0.4
			c-0.5-0.4-0.8-0.8-0.3-1.4c0.2-0.2,0.4-0.4,0.6-0.6s0.1-0.2,0.4-0.5c0.3-0.3,0.7-0.6,1.1-0.7c0.4-0.2,1.4-0.4,1.7-0.6
			c0.6-0.2,1.1-0.5,1.6-0.8c0.3-0.2,0.4-0.4,0.2-0.4c0,0-0.1,0,0,0s0.1-0.1,0-0.1h-0.3c-0.1,0-0.3,0-0.4,0.1c-0.1,0-0.4,0.1-0.4,0
			s0,0-0.1,0c-0.4,0-1.1-0.1-1.5,0l-0.9,0.1c-0.2,0-0.2-0.1-0.3-0.1s0-0.1-0.1-0.1c-0.5,0-1,0-1.4,0c-0.7,0.1-1.5,0.1-2.2,0
			c-0.3,0-0.6,0-0.9,0"/>
		<path d="M94.3,126.3c-0.7,0.3-1.3,0.1-2.1,0.9c-1.1,1.3-2,2.7-2.8,4.1c-0.8,1.6-2.8,2.3-4.5,1.6c-1.8-0.6-2.2-2-1-3.4
			c1-1.1,2-2.1,3.1-3.1c0.2-0.2,0.5-0.5,0.7-0.8l-0.2-0.3c-1.9,0.8-3.8,1.7-5.7,2.6c-0.5,0.2-1,0.6-1.5,0.8c-1.4,0.8-3.2,0.3-4-1.1
			c-0.1-0.1-0.1-0.2-0.1-0.3c-0.6-1.4,0.1-3.1,1.6-3.6c0.1-0.1,0.3-0.1,0.4-0.1c1.6-0.5,3.3-0.7,4.9-1.1l1-0.3
			c-0.1-0.1-0.1-0.2-0.1-0.2c-3.4-1.6-4.4-6.8-2.5-10c0.7-1.2,1.5-2.3,2.3-3.3c1.3-1.5,2.6-2.9,2.7-5.1h0.3l1.6,3.5
			c1-1.4,1.9-3,3.1-4.4c1.3-1.5,2-3.5,2-5.5c0-0.8,0.2-1.6,0.5-2.4c0.6,2.7,2.8,4.2,4.4,6.2c1.5,1.8,2.5,4,3,6.3
			c0.1,0.6,0.3,1.2,0.5,2c0.9-1.8,0.3-3.3,0.2-4.9c1.8,2.6,4.5,4.7,4.8,8.1c0.4,3.8-1.2,6.9-4.5,9.2l4.1,0.6
			c1.1,0.2,2.1,0.3,3.2,0.5c1.5,0.3,2.3,1,2.2,1.9c-0.1,1.4-1.2,2.6-2.6,2.8c-0.8,0-1.6-0.1-2.3-0.3c-2-0.6-3.9-1.2-5.8-1.8
			c-0.3-0.1-0.6-0.1-0.9,0c1.2,0.7,2.4,1.3,3.4,2c0.7,0.5,1.2,1.1,1.6,1.8c0.3,0.8,0,1.8-0.8,2.2c-0.9,0.8-2.3,0.8-3.3,0.2
			c-0.7-0.6-1.3-1.2-1.9-1.9c-1.2-1.3-2.6-2.4-4.1-3.3"/>
	</g>
</g>
</svg>
