<svg xmlns="http://www.w3.org/2000/svg" viewBox="0 0 66.09 26.21"><defs><style>.cls-1{fill:#010101;}</style></defs><title>logo_notext</title><g id="Layer_2" data-name="Layer 2"><g id="Layer_1-2" data-name="Layer 1"><path class="cls-1" d="M9.1,9.18c.08.18.85.4.86.58a.29.29,0,0,0,0,.09l.49.6,0,0a2.63,2.63,0,0,0,.06.48.39.39,0,0,0,.07.23,3.88,3.88,0,0,1,.35.63.11.11,0,0,1,0,.08,1.44,1.44,0,0,1-.1.54,3.36,3.36,0,0,0-.06.63,3.78,3.78,0,0,1-.06.47l0,0a.37.37,0,0,0,.06.48c.16-.15.47-.09.53-.38h.11l.54-.21a1.2,1.2,0,0,0,.47-.29,1.12,1.12,0,0,1,.24-.19l.34-.23c.11-.08.16-.14.25-.2a.82.82,0,0,1,.2-.12,2.08,2.08,0,0,0,.47-.24,3.09,3.09,0,0,1,.55-.4.79.79,0,0,1,.47-.14.62.62,0,0,0,.23-.07l.07,0a1.27,1.27,0,0,1,.76.14.37.37,0,0,0,.29.06,3.93,3.93,0,0,0,.54-.2c.23-.1.47-.17.7-.27a6,6,0,0,1,.7-.28,6.35,6.35,0,0,0,.8-.32,6.09,6.09,0,0,1,.71-.27c.23-.06.3-.06.4.15s.06.18.1.26c.12.24.24.47.34.72.15.4.35.74.53,1.11l.26.54.17.36c.13.27.25.54.4.8a.19.19,0,0,0,.23.12c.21-.1.4-.21.63-.31a.72.72,0,0,1,.46-.12l.34.06v.21l-.05,0c0,.11,0,.23-.06.34s0,.18-.06.26l-.21.7c0,.1,0,.19-.07.29s-.07.22-.09.33a.29.29,0,0,0,0,.13l-.34.14-.37.14-.43.18-.4.16-.32.12-.37.14-.34.12-.36.13-.59.25-.5.2a2.6,2.6,0,0,0-.36.13c-.06,0-.2,0-.17.13l.38.08.22.1a.54.54,0,0,1,.26.59h0a.83.83,0,0,1-.21.72.74.74,0,0,0-.11.24c0,.12-.07.24-.11.36a1,1,0,0,0-.06.16.61.61,0,0,1-.3.46,2.74,2.74,0,0,1-.36.23.35.35,0,0,0,.13.14.4.4,0,0,1,.25.42,2.37,2.37,0,0,1,0,.84,1.14,1.14,0,0,1-.28.49,1.46,1.46,0,0,1-.38.27c-.26.14-.53.25-.8.38l-.36,0h-.34s-.38,0-.41,0l-.34-.05-.54-.06-.71-.06h0a3.22,3.22,0,0,0-.54-.1,7.63,7.63,0,0,0-1.51,0,1.6,1.6,0,0,1-.31,0,7,7,0,0,0-1.37.05,1.51,1.51,0,0,1-.42.05,7.4,7.4,0,0,1-1.88-.1,5,5,0,0,0-.66-.11l-.43-.06h0a2.37,2.37,0,0,0-.36-.09c-.24,0-.49,0-.73-.06l-.05,0L5.7,23a3.76,3.76,0,0,0-.4-.13l-.4-.14c-.2,0-.21,0-.2-.23a.37.37,0,0,0-.12-.3.62.62,0,0,1-.16-.37c0-.23,0-.45.06-.68a2,2,0,0,1,0-.24l.06-.16a2.75,2.75,0,0,1-.49.14,1.47,1.47,0,0,1-1-.1,2.44,2.44,0,0,0-.56-.28.65.65,0,0,1-.37-.18H2.1l-.11,0,.13-.05c-.09-.21-.17-.4-.25-.62,0-.06,0-.13,0-.2s-.07-.21-.1-.33a.94.94,0,0,0,0-.16,2,2,0,0,1-.18-.59.24.24,0,0,0-.12-.14c-.13,0-.27,0-.4,0l-.17-.05-.2-.08a.21.21,0,0,1-.21-.19.06.06,0,0,1,0,0v-.4a1.67,1.67,0,0,0-.11-.66,1.32,1.32,0,0,1-.08-.33c0-.2,0-.4,0-.61v-.09a1.17,1.17,0,0,1-.11-.61A.19.19,0,0,0,0,14.92v-.35c0-.09.05-.19.08-.27a1.06,1.06,0,0,1,.45-.57.65.65,0,0,0,.15-.18,1.3,1.3,0,0,0,.08-.17s0-.06.05-.09a.27.27,0,0,1,.09-.12A1.51,1.51,0,0,1,1.25,13l.26,0a3.35,3.35,0,0,0,.08-.54,2.46,2.46,0,0,1,.16-.76,4.5,4.5,0,0,1,.2-.51c.13-.26.28-.5.4-.74a1.21,1.21,0,0,0,0-.18c0-.15.07-.31.11-.47s.1-.2.16-.3a3.51,3.51,0,0,1,.72.07,3.38,3.38,0,0,0,.84,0l.27,0a.13.13,0,0,1,.14.07.09.09,0,0,0,.12.07.1.1,0,0,0,.07-.07c0-.11.48-.22.51-.34s.4,0,.56-.22c0,0,.4-.45.4-.47m6,7.9a6.09,6.09,0,0,0-.45-1,2.8,2.8,0,0,0-.34.21.22.22,0,0,0-.08.13,2.21,2.21,0,0,1-.05.68,3.84,3.84,0,0,0-.14.4l.11.12.23-.16-.06-.17.19.07,0-.07v-.07h.07A.22.22,0,0,0,12,16.5l0-.09.07.1h.2ZM6.61.2a1.38,1.38,0,0,1,.88,1.37l.17.08c.32-.09.63-.2.94-.26a3.32,3.32,0,0,1,1.4.14A4.12,4.12,0,0,1,11.12,2a1,1,0,0,1,.4.4.12.12,0,0,0,.08,0,1.36,1.36,0,0,1,1.1.68,2.92,2.92,0,0,1,.4,1.15.58.58,0,0,0,.43.52l-.24,0v0l.27.12a.78.78,0,0,1-.63-.13l.08.08a.36.36,0,0,1,.08.09L13,4.82h0l.09.06,0,0-.35-.28,0,.11h0l0-.1,0,0,.07.31-.12,0c-.06.22-.1.44-.17.64a6.54,6.54,0,0,1-.28.6h.17l-.11.09a.16.16,0,0,0-.1.2h0a1.11,1.11,0,0,0,.2.53c.16.26.1.4-.2.44a.23.23,0,0,0-.23.23h0c0,.22,0,.22-.2.29.11.18.07.26-.12.35a.21.21,0,0,0-.1.15.56.56,0,0,1-.56.54,1.64,1.64,0,0,1-.68-.15,3,3,0,0,0-.4-.17.27.27,0,0,0-.37.08c-.2.23,0,.47-.2.7a.32.32,0,0,0,0,.37c.13.24.25.49.38.74s.11.21.16.32a.15.15,0,0,1,0,.22.17.17,0,0,1-.12,0C8.08,11,7,10.76,5.6,10.57a.16.16,0,0,1-.17-.15.16.16,0,0,1,.06-.13c.4-.57-.33-.66.22-1.09.35-.27.74-.65,1.08-.94.18-.21.4-.43.5-.55a.08.08,0,0,0,0-.1l0,0a.18.18,0,0,0-.09,0c-.45-.08-.4-.56-.62-.93a4,4,0,0,1-.47-1.2,2.48,2.48,0,0,1,.21-1.56c.09-.19.16-.39.25-.62l-.33.16a.4.4,0,0,0-.2.32c-.07.33-.13.66-.21,1a1.42,1.42,0,0,1-.17.4,1.52,1.52,0,0,1-.22.22,1.25,1.25,0,0,1-1.2.25l-.48-.09a1.06,1.06,0,0,0,.48-.93l-.18.08A.74.74,0,0,0,4,3.94c-.06-.1-.13-.19-.19-.28s-.16-.29-.26-.43a2.07,2.07,0,0,1-.32-1V2.17l.06-.47a2.17,2.17,0,0,1,.15-.35A2.44,2.44,0,0,1,5.61,0H5.7l.57.08a1.94,1.94,0,0,1,.34.11Z"/><path class="cls-1" d="M62.3,21.39a2.52,2.52,0,0,1-.74-1.56,2.53,2.53,0,0,0,0-.55v-.46a3.39,3.39,0,0,1-.21-.73.37.37,0,0,0,0-.21,7.86,7.86,0,0,0-.41-.94,16.14,16.14,0,0,0-1-1.69c-.18-.27-.44-.47-.62-.74s-.22-.55-.37-.81c-.31-.45-.37-1.08-.85-1.4a.21.21,0,0,1,0-.06c.09-.3-.14-.45-.26-.63s-.34-.48-.5-.72a2.43,2.43,0,0,0-.3-.52c-.5-.49-1-1-1.52-1.43a.48.48,0,0,0-.2-.07l-.34-.14c.4-.13.33-.38.24-.68a1.34,1.34,0,0,1-.4,0,.29.29,0,0,1-.19-.15.51.51,0,0,0-.26-.59c-.26-.21-.53-.43-.78-.65a.9.9,0,0,1-.12-.24l.06,0-.81-1.08.12-.23-.56-.41.24-.18c-.27-.17-.5-.3-.72-.46a1,1,0,0,1-.43-.42c-.13-.59-.74-.62-1-1.07a1.06,1.06,0,0,0-.5-.44A6.17,6.17,0,0,1,48.57,0l-.28,0A3,3,0,0,0,48,.77a4.55,4.55,0,0,1-.32,1.32c-.11.3-.63.53-.82.6a.49.49,0,0,0-.22.18,7.78,7.78,0,0,0-.7,1.38,2.88,2.88,0,0,1-1.09,1.38c-.29.23-.58.47-.88.68a3.11,3.11,0,0,1-.45.22l0,.15a2.2,2.2,0,0,0,.28.44,8.16,8.16,0,0,0,1.11,1,1.1,1.1,0,0,0,.94.19c.35-.1.71-.46,1.19-.1-.14.37-.3.75-.42,1.15a1.73,1.73,0,0,0-.06.6,3,3,0,0,1,.13.49A3.06,3.06,0,0,0,47,11.78,1.47,1.47,0,0,1,47.1,13a1.28,1.28,0,0,1,.14.34c0,.29-.05.58,0,.87s-.06.81.44.92a.41.41,0,0,1,.07.11c.28.29.15.65.07,1a11.59,11.59,0,0,1-.46,1.24c-.15.4-.55.63-.57,1.1l0,.07c-.16.25-.32.49-.47.74a1.19,1.19,0,0,0-.3.87.34.34,0,0,1-.14.29c-.4.13-.47.6-.77.81s-.61.61-.93.63a2.21,2.21,0,0,0-1.21.4,1.42,1.42,0,0,1,.08.45c-.06.33.08.43.34.47a5.69,5.69,0,0,1,.59.16l.14,0,.08-.05a1.63,1.63,0,0,0,1.18-.32.65.65,0,0,1,.31.05c.18,0,0-.33.17-.36a4.28,4.28,0,0,0,.68-.25l.18-.17c.31-.22.52-.65,1-.51a.13.13,0,0,0,.13-.08.91.91,0,0,1,.69-.66.42.42,0,0,0,.24-.51l0,0a.6.6,0,0,1,.22-.63l.8-.75a.67.67,0,0,0,0-.2.6.6,0,0,1,.06-.37,2.09,2.09,0,0,1,.67-.37.27.27,0,0,1,.37.14.23.23,0,0,1,0,.14c0,.24,1.32.85,1.42,1.08a1.75,1.75,0,0,0,.67.84c.14.09-.1.33.1.46s-.22.34-.26.53a.46.46,0,0,1-.36.14c-.43,0,.62,0,.19,0a3.17,3.17,0,0,0-.92.27,2.6,2.6,0,0,1,0,.28c-.09.7-.06.8.57.86s-.37,0,.18,0c.35,0,.48,0,.64.19a1.22,1.22,0,0,0,.89.44,5.15,5.15,0,0,0,1.11,0c.13,0,.37.08.37.06.11-.43.28,0,.41,0s.16.07.23.06l1.58-.34a.57.57,0,0,0,.27.3,5,5,0,0,0,.62-.49A2.72,2.72,0,0,1,59,23.1a.64.64,0,0,1,.26.13.38.38,0,0,0,.11.11h1.54a.81.81,0,0,0,.24.17,2.91,2.91,0,0,0,.59,0"/><path d="M59.61,20.13a11.54,11.54,0,0,0,1.7.24c.31,0,0,0,.19,0a4.47,4.47,0,0,1,.45-.09,2.17,2.17,0,0,1,.67,0,2.62,2.62,0,0,1,.91.32,2.11,2.11,0,0,0,.53.24,1.34,1.34,0,0,1,.41.15l.47.21a1.49,1.49,0,0,1,.32.17s0,0,0,.05a2.17,2.17,0,0,0-.36,0s0,0,0,.06.17.09.24.15a1.08,1.08,0,0,1,.3.19,2.44,2.44,0,0,1,.6,1,1.05,1.05,0,0,1,.06.24.42.42,0,0,1,0,.21.78.78,0,0,0-.07.52,1.55,1.55,0,0,1-.1.78.22.22,0,0,1-.11.1.08.08,0,0,1-.09-.07s0-.16,0-.21a1.21,1.21,0,0,0-.08-.19s0,0,0,0a.6.6,0,0,0,0,.18,1.87,1.87,0,0,1-.44.82,1.55,1.55,0,0,1-.27.23,1.79,1.79,0,0,1-.44.21c-.15.06-.36.06-.53.12s-.45.21-.58.27l-.27.09c-.09,0-.16,0-.2,0s0-.11,0-.16.15-.13.15-.15-.11,0-.13,0a1.19,1.19,0,0,1-.7,0s0,0-.14,0-.41.16-.5.19a.21.21,0,0,1-.16,0s0-.15,0-.2.08-.1.07-.12,0,0,0-.05-.14,0-.22,0-.23.11-.33,0a.66.66,0,0,0-.41-.1.88.88,0,0,1-.24,0A.18.18,0,0,1,60,25.6s.05-.07,0-.11.12-.14.08-.16c-.2-.13-.28-.29-.09-.5l.23-.22a1.79,1.79,0,0,1,.14-.18,1.27,1.27,0,0,1,.41-.27l.63-.2a3.16,3.16,0,0,0,.59-.31c.12-.08.15-.15.09-.16s0,0,0,0,0,0,0,0H62a.33.33,0,0,0-.15,0s-.14,0-.13,0,0,0,0,0c-.16,0-.41,0-.54,0l-.33,0c-.09,0-.08,0-.12-.05s0,0,0,0a4.64,4.64,0,0,0-.53,0,4.41,4.41,0,0,1-.81,0c-.08,0-.25,0-.35,0"/><path d="M32.51,23.58c-.26.09-.46,0-.76.33a8.19,8.19,0,0,0-1,1.52,1.29,1.29,0,0,1-1.65.59c-.65-.22-.82-.71-.37-1.23s.75-.77,1.12-1.15c.09-.09.17-.19.25-.28L30,23.25,28,24.19c-.19.09-.36.21-.55.31a1.08,1.08,0,0,1-1.52-.5,1,1,0,0,1,.73-1.38c.58-.17,1.19-.26,1.79-.39l.38-.09s0-.08,0-.08a2.71,2.71,0,0,1-.91-3.67,8.56,8.56,0,0,1,.86-1.21,3.18,3.18,0,0,0,1-1.87h.12l.57,1.27c.35-.5.71-1.09,1.14-1.62a2.91,2.91,0,0,0,.75-2,2.62,2.62,0,0,1,.17-.85c.23,1,1,1.54,1.63,2.26a5.09,5.09,0,0,1,1.11,2.3c0,.21.11.42.19.72a2.82,2.82,0,0,0,0-1.81c.68.95,1.64,1.74,1.76,3a3.54,3.54,0,0,1-1.64,3.39l1.5.21,1.16.18c.55.1.83.35.81.7a1.11,1.11,0,0,1-1,1,3.07,3.07,0,0,1-.85-.13c-.71-.21-1.42-.45-2.12-.67a.52.52,0,0,0-.33,0A14.51,14.51,0,0,1,36,24a1.78,1.78,0,0,1,.57.65.68.68,0,0,1-.29.82,1,1,0,0,1-1.21.07,5.06,5.06,0,0,1-.71-.68,7.27,7.27,0,0,0-1.51-1.22"/></g></g></svg>