<svg xmlns="http://www.w3.org/2000/svg" viewBox="0 0 185.94 202.59"><defs><style>.cls-1{font-size:16.39px;font-family:BrandonGrotesque-Regular, Brandon Grotesque;}.cls-1,.cls-4{fill:#231f20;}.cls-2{fill:none;}.cls-3{fill:#010101;}</style></defs><title>atplgy_logo_black_2</title><g id="Layer_2" data-name="Layer 2"><g id="Layer_1-2" data-name="Layer 1"><text class="cls-1" transform="translate(23.16 49.81) rotate(-50.94)">A</text><text class="cls-1" transform="translate(31.91 39.29) rotate(-41.24)">N</text><text class="cls-1" transform="translate(43.88 29.34) rotate(-32.47)">T</text><text class="cls-1" transform="translate(52.97 23.6) rotate(-23.69)">H</text><text class="cls-1" transform="matrix(0.97, -0.24, 0.24, 0.97, 67.11, 17.73)">R</text><text class="cls-1" transform="translate(80.38 14.58) rotate(-3.93)">O</text><text class="cls-1" transform="matrix(1, 0.1, -0.1, 1, 96.64, 13.85)">P</text><text class="cls-1" transform="translate(108.78 15.18) rotate(14.16)">A</text><text class="cls-1" transform="translate(121.61 18.46) rotate(24.39)">W</text><text class="cls-1" transform="matrix(0.83, 0.56, -0.56, 0.83, 137.35, 26.15)">L</text><text class="cls-1" transform="translate(146.3 32.17) rotate(42.87)">O</text><text class="cls-1" transform="matrix(0.6, 0.8, -0.8, 0.6, 157.97, 43.43)">G</text><text class="cls-1" transform="translate(166.62 55.53) rotate(62.2)">Y</text><text class="cls-1" transform="translate(5.52 142.4) rotate(60.52)">V</text><text class="cls-1" transform="translate(13.52 155.73) rotate(51.71)">E</text><text class="cls-1" transform="translate(22.64 166.68) rotate(43.89)">T</text><text class="cls-1" transform="matrix(0.81, 0.59, -0.59, 0.81, 31.74, 175.09)">E</text><text class="cls-1" transform="matrix(0.89, 0.46, -0.46, 0.89, 43.53, 183.29)">R</text><text class="cls-1" transform="translate(57.36 189.87) rotate(20)">I</text><text class="cls-1" transform="translate(66.01 192.98) rotate(12.15)">N</text><text class="cls-1" transform="translate(83.15 196.17) rotate(2.4)">A</text><text class="cls-1" transform="translate(98.7 196.45) rotate(-6.66)">R</text><text class="cls-1" transform="translate(114.02 194.25) rotate(-15.37)">Y</text><text class="cls-1" transform="matrix(0.93, -0.37, 0.37, 0.93, 127.08, 190.24)"> </text><text class="cls-1" transform="translate(134.64 187.18) rotate(-29.01)">C</text><text class="cls-1" transform="matrix(0.78, -0.62, 0.62, 0.78, 148.69, 178.9)">A</text><text class="cls-1" transform="matrix(0.68, -0.74, 0.74, 0.68, 160.65, 168.94)">R</text><text class="cls-1" transform="matrix(0.55, -0.83, 0.83, 0.55, 170.8, 157.26)">E</text><path class="cls-2" d="M22.35,99.45A71.11,71.11,0,0,1,93.46,28.34"/><path class="cls-3" d="M30.46,87c.24.51,2.33,1.09,2.35,1.58a.48.48,0,0,0,.07.26c.43.55.88,1.09,1.33,1.64a.24.24,0,0,1,.06.11,7.24,7.24,0,0,0,.17,1.3,1.12,1.12,0,0,0,.2.63,10.29,10.29,0,0,1,1,1.72.41.41,0,0,1,0,.22A4.06,4.06,0,0,1,35.32,96a10.05,10.05,0,0,0-.18,1.73A9.16,9.16,0,0,1,35,99a.41.41,0,0,1-.07.11,1,1,0,0,0,.15,1.32c.44-.4,1.27-.24,1.45-1a.76.76,0,0,0,.3,0l1.48-.59A2.89,2.89,0,0,0,39.58,98a3.29,3.29,0,0,1,.66-.52c.3-.22.62-.41.91-.63s.45-.38.68-.55a3.76,3.76,0,0,1,.55-.32,5.58,5.58,0,0,0,1.29-.65,8.45,8.45,0,0,1,1.5-1.09,2.2,2.2,0,0,1,1.29-.39,1.65,1.65,0,0,0,.62-.18.76.76,0,0,1,.18-.09,3.46,3.46,0,0,1,2.07.38,1.08,1.08,0,0,0,.8.18,13.13,13.13,0,0,0,1.47-.57c.64-.25,1.3-.46,1.92-.74a14.37,14.37,0,0,1,1.92-.74c.76-.23,1.48-.58,2.18-.87a14.46,14.46,0,0,1,1.92-.76c.64-.16.83-.16,1.09.43.11.23.17.48.29.71.33.64.66,1.27.93,2,.4,1.09.95,2,1.43,3L64,98l.45,1c.35.73.68,1.48,1.09,2.19a.52.52,0,0,0,.64.32c.58-.26,1.09-.56,1.71-.83a2,2,0,0,1,1.25-.33l.93.15v.59a.37.37,0,0,0-.14.07c-.07.31-.1.62-.17.93a6.42,6.42,0,0,1-.16.71c-.18.64-.38,1.27-.57,1.92-.07.25-.12.51-.18.77s-.19.6-.25.92a1,1,0,0,0,0,.34l-.92.39-1,.38-1.18.5-1.09.42-.89.32-1,.39-.91.34c-.33.12-.67.22-1,.35l-1.61.68-1.36.54c-.34.1-.67.22-1,.35-.16.09-.54,0-.46.37.37.08.71.12,1,.22a2,2,0,0,1,.6.27,1.43,1.43,0,0,1,.71,1.6h0a2.34,2.34,0,0,1-.55,2,1.76,1.76,0,0,0-.32.66c-.11.31-.2.65-.29,1a1.79,1.79,0,0,0-.16.44,1.7,1.7,0,0,1-.82,1.25,8,8,0,0,1-1,.63,1.27,1.27,0,0,0,.35.38,1.08,1.08,0,0,1,.69,1.15,6.36,6.36,0,0,1-.09,2.3A3.08,3.08,0,0,1,55.6,125a3.86,3.86,0,0,1-1,.74c-.7.36-1.45.66-2.18,1l-1,.14h-.93c-.07-.06-1,0-1.11,0-.3-.06-.62-.1-.92-.15l-1.49-.15L45,126.42h-.07a7,7,0,0,0-1.5-.28,21.6,21.6,0,0,0-4.1.12,4,4,0,0,1-.85,0,20.33,20.33,0,0,0-3.74.15,4.47,4.47,0,0,1-1.15.14,20.44,20.44,0,0,1-5.12-.28,14.09,14.09,0,0,0-1.82-.3l-1.16-.15h-.1a6.52,6.52,0,0,0-1-.25c-.66-.08-1.33-.11-2-.17a.61.61,0,0,1-.14-.07l-1.09-.51a10.72,10.72,0,0,0-1.09-.34,8.86,8.86,0,0,0-1.09-.39c-.55-.11-.58-.07-.55-.64a1.11,1.11,0,0,0-.32-.82,1.43,1.43,0,0,1-.43-1c0-.62.09-1.23.15-1.85a5,5,0,0,1,.14-.67,3,3,0,0,1,.17-.41,8.05,8.05,0,0,1-1.34.36,3.93,3.93,0,0,1-2.72-.27,6.55,6.55,0,0,0-1.52-.76,1.76,1.76,0,0,1-1-.49.81.81,0,0,0-.22,0l-.29-.11.34-.14c-.23-.57-.46-1.09-.67-1.68-.06-.16,0-.36-.06-.54s-.19-.59-.28-.9a1.47,1.47,0,0,0-.11-.46,6.24,6.24,0,0,1-.49-1.59.61.61,0,0,0-.32-.4,10.77,10.77,0,0,0-1.09-.1,2.54,2.54,0,0,1-.47-.14,2.83,2.83,0,0,0-.55-.21.55.55,0,0,1-.56-.53.28.28,0,0,1,0-.09v-1.09a4.7,4.7,0,0,0-.29-1.82,4.48,4.48,0,0,1-.23-.89c0-.55,0-1.09-.08-1.68a1,1,0,0,0,0-.25,3.25,3.25,0,0,1-.29-1.65.54.54,0,0,0-.3-.57v-1c.07-.25.14-.5.22-.74a3,3,0,0,1,1.22-1.55,1.72,1.72,0,0,0,.4-.49,4.16,4.16,0,0,0,.24-.47c0-.08.09-.16.13-.24a.94.94,0,0,1,.25-.34,6.44,6.44,0,0,1,1-.37,6,6,0,0,1,.72-.11A11.94,11.94,0,0,0,10,96a6.77,6.77,0,0,1,.43-2.08A14.19,14.19,0,0,1,11,92.48c.35-.68.75-1.34,1.09-2a1.93,1.93,0,0,0,.13-.47c.11-.43.19-.86.32-1.29a6.46,6.46,0,0,1,.42-.83,11.62,11.62,0,0,1,2,.19,9.41,9.41,0,0,0,2.31.11,6.37,6.37,0,0,0,.74-.07.31.31,0,0,1,.36.2.27.27,0,0,0,.52,0c.13-.31,1.32-.63,1.41-.94.15-.56,1.09-.11,1.52-.59,0,0,1.09-1.23,1.09-1.31M39.31,107a21.23,21.23,0,0,0-1.22-2.76,10.16,10.16,0,0,0-.94.58.58.58,0,0,0-.21.37,5.75,5.75,0,0,1-.15,1.85,10.8,10.8,0,0,0-.37,1.09l.29.32.63-.44-.16-.46.52.19a.69.69,0,0,1-.1-.19.54.54,0,0,1,0-.18.54.54,0,0,1,.18,0,.61.61,0,0,0,.71-.39,1.06,1.06,0,0,1,.09-.25l.18.27h.55ZM23.68,62.54a3.74,3.74,0,0,1,2.38,3.74l.47.22a25.21,25.21,0,0,1,2.57-.7,9,9,0,0,1,3.82.37,11.88,11.88,0,0,1,3,1.17,2.5,2.5,0,0,1,1.09,1.09.35.35,0,0,0,.23.12,3.69,3.69,0,0,1,3,1.85,7.61,7.61,0,0,1,1.09,3.13A1.58,1.58,0,0,0,42.55,75l-.67-.14v.06l.74.33a2,2,0,0,1-1.7-.36l.2.22a1.75,1.75,0,0,1,.23.24L41,75.13H41l.25.18-.11.11-1-.78.07.31h0l-.1-.27-.14.06.21.85-.34-.11c-.15.59-.26,1.19-.46,1.75a17.1,17.1,0,0,1-.77,1.62h.48a1.09,1.09,0,0,1-.29.24.46.46,0,0,0-.29.57h0a3.14,3.14,0,0,0,.55,1.44c.45.7.26,1.09-.55,1.2a.63.63,0,0,0-.63.63v0c0,.59,0,.59-.54.79.29.49.2.71-.32,1a.56.56,0,0,0-.28.4,1.52,1.52,0,0,1-1.52,1.49,4.21,4.21,0,0,1-1.85-.42c-.35-.14-.69-.32-1.09-.47a.77.77,0,0,0-1,.22c-.55.64,0,1.28-.55,1.93a.83.83,0,0,0-.1,1c.34.68.67,1.35,1,2,.14.29.31.58.45.87a.43.43,0,0,1-.14.6.37.37,0,0,1-.34,0c-3.93-.51-6.76-1-10.69-1.54a.44.44,0,0,1-.45-.42.47.47,0,0,1,.15-.35c1.09-1.56-.9-1.8.6-3,1-.76,2-1.79,3-2.58.5-.56,1.09-1.17,1.35-1.49a.22.22,0,0,0,.06-.29l-.06-.06a.7.7,0,0,0-.23-.11c-1.22-.19-1.09-1.52-1.69-2.53a10.18,10.18,0,0,1-1.3-3.27,6.74,6.74,0,0,1,.58-4.24c.25-.53.44-1.09.69-1.7l-.91.43a1.11,1.11,0,0,0-.56.88c-.17.89-.34,1.79-.55,2.67a3.94,3.94,0,0,1-.48,1.09,4.32,4.32,0,0,1-.6.61,3.38,3.38,0,0,1-3.27.66L15.89,77a3,3,0,0,0,1.33-2.55l-.51.22a2,2,0,0,0-.21-1.89c-.15-.27-.35-.51-.51-.76s-.45-.79-.71-1.16a5.66,5.66,0,0,1-.89-2.73.48.48,0,0,0,0-.17l.18-1.29a7.89,7.89,0,0,1,.39-.95,6.66,6.66,0,0,1,6-3.68h.25l1.55.2a8.52,8.52,0,0,1,.94.32Z"/><path class="cls-4" d="M175.6,120.36c-.77-.31-2.21-3.39-2-4.26a7.52,7.52,0,0,0,0-1.5v-1.27a10.11,10.11,0,0,1-.57-2,.93.93,0,0,0-.06-.57,23.36,23.36,0,0,0-1.1-2.57,50.82,50.82,0,0,0-2.77-4.59c-.48-.74-1.19-1.3-1.68-2s-.62-1.51-1-2.2c-.85-1.23-1-2.95-2.32-3.84a.21.21,0,0,1-.11-.16c.24-.81-.4-1.21-.72-1.72s-.93-1.3-1.36-2a8.23,8.23,0,0,0-.82-1.41c-1.35-1.34-2.75-2.61-4.14-3.9a1.74,1.74,0,0,0-.54-.19l-.94-.39c1.08-.35.89-1,.67-1.83A5.15,5.15,0,0,1,155,84a.83.83,0,0,1-.51-.43,1.37,1.37,0,0,0-.71-1.59c-.72-.59-1.44-1.17-2.14-1.8a1.83,1.83,0,0,1-.3-.63l.15-.07-2.21-2.93.32-.65-1.52-1.09.64-.5c-.71-.46-1.35-.82-1.94-1.27a2.73,2.73,0,0,1-1.18-1.15c-.36-1.6-2-1.69-2.71-2.91a3,3,0,0,0-1.37-1.21c-1.35-.86-2.6-4.08-3.37-5.64l-.77-.1a7.71,7.71,0,0,0-.79,2.1,12.25,12.25,0,0,1-.88,3.6c-.31.81-1.71,1.45-2.22,1.65a1.17,1.17,0,0,0-.62.48,23.15,23.15,0,0,0-1.9,3.75,7.73,7.73,0,0,1-3,3.79c-.81.61-1.59,1.27-2.42,1.85a8.06,8.06,0,0,1-1.22.59l-.05.42a5.83,5.83,0,0,0,.75,1.19,21.27,21.27,0,0,0,3,2.75,2.94,2.94,0,0,0,2.57.51c1-.27,1.93-1.24,3.24-.26-.37,1-.82,2-1.15,3.13a4.76,4.76,0,0,0-.14,1.64,10.23,10.23,0,0,1,.33,1.35c-.13,1.38.64,2.44,1,3.6s.79,2.26.16,3.29a3.06,3.06,0,0,1,.39.93c0,.79-.12,1.59-.06,2.38.07,1-.17,2.2,1.18,2.52a1.21,1.21,0,0,1,.21.28c.76.8.39,1.79.19,2.61a32.77,32.77,0,0,1-1.27,3.39c-.39,1.1-1.49,1.74-1.56,3a.48.48,0,0,1-.09.19l-1.27,2a3.34,3.34,0,0,0-.82,2.4,1,1,0,0,1-.37.79c-1.09.32-1.3,1.61-2.12,2.19s-1.65,1.67-2.53,1.72a5.85,5.85,0,0,0-3.3,1.1,3.66,3.66,0,0,1,.22,1.23c-.16.89.22,1.17.93,1.28a15.36,15.36,0,0,1,1.61.44l.38,0a.66.66,0,0,1,.22-.15c1.13-.08,2.28.07,3.23-.88a1.88,1.88,0,0,1,.84.16c.48,0,0-.91.45-1a9.74,9.74,0,0,0,1.87-.68,4.09,4.09,0,0,0,.47-.46c.85-.59,1.45-1.78,2.73-1.4a.39.39,0,0,0,.35-.22,2.45,2.45,0,0,1,1.87-1.79,1.13,1.13,0,0,0,.65-1.39.69.69,0,0,0,0-.1,1.59,1.59,0,0,1,.6-1.73c.73-.67,1.46-1.35,2.17-2a1.63,1.63,0,0,0,0-.54,1.91,1.91,0,0,1,.16-1,6,6,0,0,1,1.82-1,.75.75,0,0,1,1,.41.77.77,0,0,1,.07.37c.08.65,3.59,2.33,3.87,3A4.7,4.7,0,0,0,150,117.7c.4.25-.26.89.27,1.26.29.4-.6.93-.69,1.44a1.39,1.39,0,0,1-1,.39c-1.17,0,1.7-.1.54,0a9,9,0,0,0-2.53.73c0,.15-.05.45-.09.76-.25,1.92-.16,2.19,1.54,2.35,1.5.15-1,0,.5.12,1,0,1.32-.08,1.76.51a3.3,3.3,0,0,0,2.42,1.2,14,14,0,0,0,3,0c.35,0,1,.21,1,.16.3-1.16.77,0,1.13-.11s.44.2.63.17c1.44-.29,2.88-.6,4.31-.92a1.39,1.39,0,0,0,.72.8,15.58,15.58,0,0,0,1.71-1.32,8,8,0,0,1,1.28-.23,1.6,1.6,0,0,1,.69.37,1.22,1.22,0,0,0,.31.29h4.2a1.88,1.88,0,0,0,.66.46,8.77,8.77,0,0,0,1.62,0"/><path class="cls-4" d="M168.27,116.91a30.24,30.24,0,0,0,4.64.66c.85,0,.05,0,.52,0a7.38,7.38,0,0,1,1.22-.27,7,7,0,0,1,1.82,0,7.38,7.38,0,0,1,2.48.87,4.72,4.72,0,0,0,1.47.65,4.34,4.34,0,0,1,1.11.43l1.27.57a6.35,6.35,0,0,1,.89.46c.13.11.05.09,0,.13s-.9,0-1,0-.1.09,0,.18.46.24.67.39a4.26,4.26,0,0,1,.8.53,7,7,0,0,1,1.64,2.82,2.81,2.81,0,0,1,.16.65,1.33,1.33,0,0,1-.08.58,2.23,2.23,0,0,0-.19,1.41,4.21,4.21,0,0,1-.27,2.12.52.52,0,0,1-.31.27.23.23,0,0,1-.25-.17c0-.13,0-.45-.1-.59a3.22,3.22,0,0,0-.22-.51c-.06,0-.07,0-.12.05a1.86,1.86,0,0,0-.13.5,4.86,4.86,0,0,1-1.2,2.24,3.23,3.23,0,0,1-.73.61,5.74,5.74,0,0,1-1.19.59c-.42.15-1,.15-1.44.31s-1.24.57-1.6.73a3.45,3.45,0,0,1-.74.27,1.12,1.12,0,0,1-.55,0c-.13-.06-.06-.32-.06-.44s.39-.36.39-.42-.3,0-.36,0a3,3,0,0,1-1.9,0c-.09,0-.14,0-.37,0s-1.12.44-1.36.51-.35.07-.46,0,0-.4,0-.52.22-.28.21-.35.05-.11-.06-.13-.38.08-.6.09-.62.29-.89.09a2,2,0,0,0-1.14-.3,1.89,1.89,0,0,1-.64,0,.56.56,0,0,1-.35-.19c-.07-.09.15-.19.12-.3s.34-.38.22-.45c-.53-.36-.77-.78-.25-1.35.21-.23.43-.4.63-.61s.14-.24.39-.49a3.19,3.19,0,0,1,1.12-.72c.44-.15,1.35-.42,1.72-.56a8.32,8.32,0,0,0,1.6-.85c.32-.21.41-.39.24-.44,0,0-.1,0,0,0s.13-.08,0-.07h-.31a1.57,1.57,0,0,0-.4.09c-.09,0-.38.1-.36,0s0,0-.07,0c-.41,0-1.1-.06-1.46,0l-.91.07c-.22,0-.22-.1-.31-.13s0-.07-.07-.07a11.44,11.44,0,0,0-1.44,0,14.78,14.78,0,0,1-2.2,0,5.06,5.06,0,0,0-.95,0"/><path d="M94.32,126.33c-.71.25-1.25.08-2.06.91a21.92,21.92,0,0,0-2.77,4.13A3.53,3.53,0,0,1,85,133c-1.78-.6-2.23-2-1-3.37,1-1.1,2-2.09,3.06-3.14.24-.24.46-.5.69-.76l-.17-.3c-1.9.85-3.8,1.69-5.69,2.57-.52.23-1,.58-1.49.83a2.93,2.93,0,0,1-4.14-1.35,2.8,2.8,0,0,1,2-3.76c1.6-.46,3.26-.72,4.89-1.07l1-.25c-.05-.1-.06-.2-.11-.22-3.44-1.58-4.38-6.79-2.48-10a27.11,27.11,0,0,1,2.34-3.31c1.25-1.51,2.64-2.91,2.71-5.07l.33,0,1.56,3.46c1-1.37,1.94-3,3.11-4.42a8,8,0,0,0,2-5.46A7.05,7.05,0,0,1,94.12,95c.61,2.74,2.85,4.22,4.45,6.16a14.28,14.28,0,0,1,3,6.29c.13.58.31,1.15.52,2,.91-1.76.33-3.32.15-4.92,1.83,2.59,4.46,4.73,4.79,8.11.38,3.81-1.16,6.86-4.49,9.23l4.09.59c1.06.15,2.12.28,3.17.47,1.51.28,2.27,1,2.2,1.91a3,3,0,0,1-2.64,2.78,7.51,7.51,0,0,1-2.3-.35c-2-.57-3.87-1.22-5.8-1.83a1.45,1.45,0,0,0-.88,0c1.16.67,2.37,1.26,3.45,2a4.68,4.68,0,0,1,1.55,1.79,1.83,1.83,0,0,1-.79,2.24,2.85,2.85,0,0,1-3.3.18,13.43,13.43,0,0,1-1.92-1.85,20.89,20.89,0,0,0-4.13-3.34"/></g></g></svg>